<?xml version="1.0" encoding="UTF-8" standalone="no"?>
<!-- Created with Inkscape (http://www.inkscape.org/) -->

<svg
   xmlns:dc="http://purl.org/dc/elements/1.1/"
   xmlns:cc="http://creativecommons.org/ns#"
   xmlns:rdf="http://www.w3.org/1999/02/22-rdf-syntax-ns#"
   xmlns:svg="http://www.w3.org/2000/svg"
   xmlns="http://www.w3.org/2000/svg"
   xmlns:sodipodi="http://sodipodi.sourceforge.net/DTD/sodipodi-0.dtd"
   xmlns:inkscape="http://www.inkscape.org/namespaces/inkscape"
   width="7917.062"
   height="1463.5577"
   viewBox="0 0 7917.0621 1463.5577"
   id="svg2"
   version="1.1"
   inkscape:version="0.91 r13725"
   sodipodi:docname="logo.svg">
  <defs
     id="defs4" />
  <sodipodi:namedview
     id="base"
     pagecolor="#ffffff"
     bordercolor="#666666"
     borderopacity="1.0"
     inkscape:pageopacity="0.0"
     inkscape:pageshadow="2"
     inkscape:zoom="0.12374369"
     inkscape:cx="3812.0146"
     inkscape:cy="-634.96354"
     inkscape:document-units="px"
     inkscape:current-layer="layer1"
     showgrid="false"
     inkscape:snap-bbox="true"
     inkscape:bbox-paths="true"
     inkscape:bbox-nodes="true"
     inkscape:snap-bbox-edge-midpoints="true"
     inkscape:object-paths="true"
     inkscape:snap-intersection-paths="true"
     inkscape:snap-smooth-nodes="true"
     inkscape:object-nodes="true"
     inkscape:snap-midpoints="true"
     inkscape:snap-object-midpoints="true"
     inkscape:snap-center="true"
     inkscape:snap-text-baseline="true"
     inkscape:window-width="1680"
     inkscape:window-height="1002"
     inkscape:window-x="1281"
     inkscape:window-y="0"
     inkscape:window-maximized="0"
     units="px"
     fit-margin-top="-1.3"
     fit-margin-left="0"
     fit-margin-right="0"
     fit-margin-bottom="0" />
  <metadata
     id="metadata7">
    <rdf:RDF>
      <cc:Work
         rdf:about="">
        <dc:format>image/svg+xml</dc:format>
        <dc:type
           rdf:resource="http://purl.org/dc/dcmitype/StillImage" />
        <dc:title></dc:title>
      </cc:Work>
    </rdf:RDF>
  </metadata>
  <g
     inkscape:label="Layer 1"
     inkscape:groupmode="layer"
     id="layer1"
     transform="translate(3437.0146,1566.1591)">
    <path
       style="fill:#333333;fill-opacity:1"
       d="m 2106.0104,-104.02273 c -1.6329,-2.0556 -9.065,-27.3433 -9.065,-30.8433 0,-1.9754 1.2852,-3.2404 4.6875,-4.6134 23.446,-9.4621 42.6447,-26.5884 56.493,-50.3944 2.6271,-4.5162 5.7507,-11.0239 6.9413,-14.4614 l 2.1645,-6.25 -40.9538,-102.5 c -22.5246,-56.37498 -41.0109,-103.90618 -41.0806,-105.62498 l -0.1269,-3.125 21.3856,-0.3412 c 16.161,-0.2579 21.6904,0.047 22.6333,1.25 1.6501,2.1044 52.9236,142.21708 57.1894,156.27868 1.8248,6.0157 3.7058,10.9335 4.1798,10.9288 0.474,0 2.7182,-6.333 4.9868,-14.0625 5.8679,-19.9925 50.2556,-151.23928 51.784,-153.11628 1.8561,-2.2796 42.039,-2.2286 42.9151,0.055 0.6095,1.5885 -60.833,163.47328 -75.058,197.75798 -9.8591,23.7623 -23.7857,51.3358 -32.9959,65.3294 -15.2585,23.1833 -36.8566,41.7951 -59.164,50.984 -11.1361,4.5873 -14.9622,5.209 -16.9161,2.7491 z"
       id="path4291"
       inkscape:export-xdpi="10"
       inkscape:export-ydpi="10"
       inkscape:connector-curvature="0" />
    <path
       style="fill:#333333;fill-opacity:1"
       d="m 1024.6498,-108.84043 c -1.9171,-5.1159 -4.4656,-28.6181 -3.2245,-29.7359 0.6298,-0.5671 5.3638,-1.698 10.52,-2.513 18.9598,-2.9966 31.8428,-11.6725 38.3104,-25.7995 7.073,-15.4495 7.0583,-15.1829 7.586,-138.9107 0.3961,-92.92278 0.7932,-114.21938 2.1505,-115.34578 1.0985,-0.9117 8.1962,-1.2639 20.8714,-1.0357 l 19.2067,0.3458 0.3635,108.74998 c 0.3781,113.1523 0.012,123.9908 -4.892,142.8785 -4.2396,16.3453 -10.2787,27.064 -21.6542,38.4338 -7.7185,7.7146 -12.341,11.1566 -19.8133,14.7535 -11.7332,5.648 -25.6007,9.3839 -38.6531,10.413 -9.3505,0.7374 -9.6839,0.6682 -10.7714,-2.234 z"
       id="path4289"
       inkscape:export-xdpi="10"
       inkscape:export-ydpi="10"
       inkscape:connector-curvature="0" />
    <path
       style="fill:#333333;fill-opacity:1"
       d="m 2403.8203,-426.70508 c -15.0414,0.0154 -17.1332,0.31928 -28.125,4.08008 -37.7029,12.8996 -62.8215,44.96711 -69.3984,88.59961 -9.0323,59.92278 17.4262,111.78171 65.0234,127.44531 8.7085,2.8658 12.1795,3.30363 26.875,3.39063 14.3675,0.0851 18.268,-0.33492 26.25,-2.82422 14.2946,-4.4578 23.4371,-9.87571 33.4375,-19.81641 l 9.0625,-9.00976 0,16.24218 c 0,19.8058 -2.3273,32.3889 -8.248,44.5918 -10.4503,21.5384 -31.1317,32.71344 -60.6504,32.77344 -18.9703,0.0382 -42.24,-5.48611 -55.6992,-13.22461 -2.8724,-1.6515 -6.0602,-3.00391 -7.084,-3.00391 -1.9616,0 -10.8184,24.29198 -10.8184,29.67188 0,5.3558 24.3894,14.90827 46.875,18.35937 24.0313,3.6882 52.3895,1.61101 72.4649,-5.30859 39.3247,-13.5546 59.4674,-42.43276 64.2402,-92.09766 0.7739,-8.053 1.4338,-55.4418 1.5918,-114.375 l 0.2695,-100.625 -18.0332,0 -18.0332,0 -1.082,14.17188 -1.0821,14.17187 -3.8554,-4.79687 c -16.1774,-20.1227 -34.9186,-28.44602 -63.9805,-28.41602 z m 6.0059,33.10156 c 5.2525,-0.10816 10.4504,0.29055 14.4765,1.21875 19.2649,4.4414 35.2865,20.95972 40.7774,42.04102 2.6133,10.0335 2.5998,58.9857 -0.02,70.0957 -4.6933,19.9057 -18.3086,35.37693 -36.3437,41.29883 -9.4696,3.1093 -16.6227,3.82086 -26.7715,2.66406 -25.2902,-2.8826 -43.5725,-20.48212 -51.4687,-49.54882 -3.7288,-13.7283 -3.7421,-41.73595 -0.025,-55.54493 7.0953,-26.3616 23.543,-44.96279 44.5703,-50.40429 4.2451,-1.09855 9.5521,-1.71215 14.8047,-1.82032 z"
       id="path4287"
       inkscape:export-xdpi="10"
       inkscape:export-ydpi="10"
       inkscape:connector-curvature="0" />
    <path
       style="fill:#333333;fill-opacity:1"
       d="m 514.44531,-426.70312 c -13.97238,-0.0601 -18.58511,0.41814 -26.81836,2.77734 -18.50762,5.3031 -35.8382,16.9124 -45.01757,30.1582 -2.48376,3.5839 -3.87563,4.69516 -4.46876,3.56836 -0.47374,-0.9002 -1.20678,-7.99934 -1.6289,-15.77734 -0.42213,-7.778 -1.09237,-14.6687 -1.49024,-15.3125 -1.14713,-1.856 -35.0327,-1.49268 -36.42382,0.39062 -0.68513,0.9274 -0.79594,11.7239 -0.27344,26.5625 0.48413,13.75 0.9338,82.42317 1,152.60547 0.0664,70.1823 0.49671,127.9792 0.95508,128.4375 0.45825,0.4583 9.67836,0.83203 20.49023,0.83203 16.77238,0 19.77059,-0.28956 20.41797,-1.97656 0.41737,-1.0875 0.75781,-26.74839 0.75781,-57.02539 l 0,-55.05078 8.45703,7.96484 c 15.9245,14.995 33.54934,21.56397 57.79297,21.54297 17.61875,-0.0153 27.615,-2.32783 43.4375,-10.04883 32.35738,-15.7899 52.93096,-50.11325 56.43946,-94.15625 1.08987,-13.6815 0.0429,-33.6528 -2.32618,-44.375 -8.73088,-39.514 -31.4058,-66.88999 -64.39843,-77.74609 -8.765,-2.8841 -12.15035,-3.30709 -26.90235,-3.37109 z m -11.18554,34.86718 c 15.61288,0 15.73727,0.0236 25.18164,4.69141 16.17813,7.9956 28.30942,24.10289 34.12304,45.30859 2.788,10.1694 3.82672,35.33259 1.98047,47.95899 -5.14275,35.1717 -24.41349,58.10686 -52.59961,62.60156 -10.35425,1.6513 -15.14803,1.52489 -24.05078,-0.63281 -20.75512,-5.0306 -37.31012,-20.3455 -43.4375,-40.1836 -2.20512,-7.1393 -2.51044,-11.5861 -2.49414,-36.4375 0.0136,-20.82218 0.5175,-30.42315 1.90625,-36.31445 4.31913,-18.3237 16.79045,-33.84059 33.92383,-42.21289 9.74975,-4.764 9.82218,-4.7793 25.4668,-4.7793 z"
       id="path4283"
       inkscape:export-xdpi="10"
       inkscape:export-ydpi="10"
       inkscape:connector-curvature="0" />
    <path
       style="fill:#ff00fe;fill-opacity:1"
       d="m 3647.4932,-190.63283 c -43.573,-6.3625 -86.9045,-27.3765 -119.6878,-58.0436 -28.8526,-26.9903 -51.66,-65.9298 -61.5646,-105.11058 -25.7284,-101.7765 23.1686,-207.1976 117.2372,-252.7611 61.1531,-29.6204 133.6273,-29.2278 193.8608,1.0502 23.995,12.0617 40.7467,24.3722 59.6855,43.8614 13.5429,13.9365 20.8454,23.1789 30.151,38.1608 34.9719,56.3038 41.9776,131.3307 18.0486,193.2905 -25.9299,67.14118 -82.623,117.64278 -151.677,135.11248 -24.7709,6.2668 -60.8092,8.1262 -86.0537,4.4399 z"
       id="path4279"
       inkscape:export-xdpi="10"
       inkscape:export-ydpi="10"
       inkscape:connector-curvature="0" />
    <path
       style="fill:#333333;fill-opacity:1"
       d="m 245.71094,-426.80859 c -11.07769,-0.003 -22.14789,0.97122 -29.32227,2.92187 -30.34038,8.249 -54.10181,27.81035 -67.52344,55.58984 -19.1185,39.57069 -16.24278,93.01886 6.83985,127.13086 16.45088,24.3117 43.77385,40.63555 73.74023,44.05664 16.50237,1.88391 33.13498,-0.057 50.25586,-5.86328 34.60675,-11.7365 58.28325,-37.84642 68.10938,-75.11132 2.95737,-11.2157 3.30403,-14.8116 3.36523,-35 0.0799,-26.52568 -2.07372,-37.56939 -10.94922,-56.17579 -13.27987,-27.8392 -35.67063,-46.60768 -65.15625,-54.61328 -7.19737,-1.9544 -18.28168,-2.93273 -29.35937,-2.93554 z m 0.2832,32.05664 c 29.23376,0.53935 52.42875,22.97217 59.73047,58.54101 10.43625,50.83768 -13.31259,99.00676 -52.38672,106.25196 -25.27375,4.6864 -49.83523,-8.288 -62.88086,-33.2168 -8.58675,-16.4083 -10.38672,-24.73166 -10.38672,-48.03516 0,-15.4242 0.52487,-22.5161 2.08399,-28.125 9.749,-35.0727 28.39014,-52.84761 57.91601,-55.22851 1.99968,-0.16125 3.97491,-0.22346 5.92383,-0.1875 z"
       id="path4277"
       inkscape:export-xdpi="10"
       inkscape:export-ydpi="10"
       inkscape:connector-curvature="0" />
    <path
       style="fill:#333333;fill-opacity:1"
       d="m 832.73242,-427.17773 c -22.13391,0.21876 -47.19483,5.305 -64.21484,13.92968 -9.8065,4.9694 -9.88354,5.23014 -5.41992,18.55664 5.60775,16.7427 4.60636,16.05705 15.53711,10.65235 16.37363,-8.0961 26.34616,-10.27511 47.06054,-10.28711 16.9557,-0.008 18.57593,0.20278 25.11133,3.26758 14.2745,6.694 22.17058,19.37681 23.33008,37.47461 l 0.60742,9.50195 -4.05469,0.81055 c -2.2309,0.4462 -7.61333,0.81054 -11.96093,0.81054 -4.3477,0 -14.26165,0.84079 -22.03125,1.86719 -50.5075,6.6727 -81.87719,27.57732 -90.38282,60.23242 -2.33125,8.9503 -2.40073,28.91661 -0.13086,37.44141 5.96025,22.3844 25.01757,39.85457 48.89844,44.82617 10.48313,2.1824 28.35999,1.59762 39.67969,-1.29687 12.2622,-3.1355 25.36961,-10.33087 34.91601,-19.16797 4.7374,-4.3855 8.80663,-7.7605 9.04493,-7.5 0.2383,0.2603 1.06067,5.19499 1.82617,10.96679 0.7655,5.7717 2.02387,11.2561 2.79687,12.1875 1.0537,1.2695 5.57681,1.69336 18.06641,1.69336 19.4506,0 19.34476,0.0687 17.75586,-11.61133 -0.5809,-4.2698 -1.52135,-39.54487 -2.08985,-78.38867 -0.9882,-67.53248 -1.15281,-71.0355 -3.79101,-80 -8.4617,-28.7538 -25.6957,-45.95624 -53.2168,-53.12304 -7.82059,-2.03654 -17.27702,-2.94319 -27.33789,-2.84375 z m 31.99219,114.71679 10.9707,0 0,21.86328 c 0,18.5641 -0.36325,22.81818 -2.41015,28.20508 -5.1742,13.6174 -17.63175,25.53704 -31.96485,30.58594 -8.1997,2.8884 -26.01836,3.68569 -32.05273,1.43359 -8.25488,-3.0809 -12.89562,-6.48231 -16.84961,-12.34961 -7.53475,-11.1804 -8.19328,-28.24734 -1.61328,-41.83984 8.26737,-17.0781 36.93562,-27.89844 73.91992,-27.89844 z"
       id="path4273"
       inkscape:export-xdpi="10"
       inkscape:export-ydpi="10"
       inkscape:connector-curvature="0" />
    <path
       style="fill:#333333;fill-opacity:1"
       d="m 1250.8359,-426.82617 c -9.7596,0.0981 -19.3606,0.86425 -26.1347,2.32226 -20.5795,4.4292 -42.7559,13.80613 -42.7559,18.07813 0,2.973 7.183,24.14783 8.709,25.67383 0.7567,0.7568 3.8373,-0.19402 8.4297,-2.60352 20.9649,-10.9992 50.8093,-14.86063 69.7207,-9.01953 16.2886,5.0311 26.2394,19.1715 27.7988,39.5 l 0.6875,8.95898 -5.4863,0.66993 c -3.0167,0.3683 -11.1165,0.97144 -18,1.33984 -69.5487,3.7222 -111.0027,36.47501 -107.6699,85.07031 1.2115,17.6664 7.0557,30.47537 19.1855,42.04297 10.0201,9.5557 22.473,15.50482 37.25,17.79492 6.5329,1.0124 25.9647,-0.31985 33.75,-2.31445 12.2132,-3.1292 26.7828,-10.99926 35.9981,-19.44336 5.3622,-4.9134 8.5546,-7.0702 8.8808,-6 0.2803,0.919 1.0806,6.11006 1.7774,11.53516 0.7192,5.5986 1.9856,10.31947 2.9296,10.91797 2.2076,1.3994 32.4299,1.36017 34.6485,-0.0449 1.3194,-0.8355 1.5237,-2.69967 0.8515,-7.79296 -0.4857,-3.68241 -1.3157,-38.75782 -1.8437,-77.94532 -0.9076,-67.35718 -1.1072,-71.7963 -3.6543,-81.25 -7.8662,-29.1951 -25.0606,-47.14288 -52.3203,-54.61328 -7.395,-2.02646 -20.2039,-3.00314 -32.752,-2.87695 z m 34.4844,114.54101 c 0.8078,0.006 1.5625,0.0234 2.25,0.0508 l 10,0.39844 0,22.53125 0,22.53125 -3.9941,8.10742 c -6.9587,14.1271 -19.1732,23.96907 -34.7989,28.03907 -20.9429,5.455 -39.438,-1.04334 -47.0195,-16.52344 -4.1909,-8.5572 -4.1769,-25.63755 0.027,-34.96875 6.9465,-15.418 25.8167,-25.57953 53.9511,-29.05274 5.6951,-0.70306 13.9298,-1.1578 19.584,-1.11328 z"
       id="path4269"
       inkscape:export-xdpi="10"
       inkscape:export-ydpi="10"
       inkscape:connector-curvature="0" />
    <path
       style="fill:#333333;fill-opacity:1"
       d="m 1801.0645,-426.88281 c -10.8068,-0.0159 -21.5976,0.95959 -28.9141,2.93359 -38.9525,10.5095 -66.4076,38.26334 -76.2852,77.11524 -9.3833,36.90748 -4.0567,76.27715 14.1211,104.37695 15.6538,24.1984 41.7185,40.59043 71.334,44.86133 l 0,-0.002 c 17.1986,2.4801 35.2076,0.76279 52.5,-5.00781 48.4316,-16.1623 75.1702,-59.24421 72.7539,-117.22461 -0.4514,-10.83048 -1.6609,-20.86426 -3.3301,-27.63086 -3.1939,-12.9465 -12.8972,-33.10284 -20.5918,-42.77734 -12.2546,-15.4077 -32.062,-28.0739 -52.582,-33.625 -7.377,-1.9955 -18.199,-3.00366 -29.0058,-3.01953 z m -3.2676,32.51367 c 8.2185,-0.0858 16.6135,0.91865 21.7812,2.94922 19.8685,7.8071 33.0484,24.16315 40.1153,49.78125 4.024,14.58988 4.0124,44.45115 -0.024,58.49805 -8.021,27.91559 -27.2024,48.27516 -49.9726,53.04296 -31.9336,6.6867 -62.1889,-15.50698 -72.2364,-52.98828 -2.9918,-11.16 -3.7368,-37.71933 -1.4043,-50.04101 5.7382,-30.3121 22.1753,-52.12435 44.4864,-59.03125 4.5755,-1.41645 10.8617,-2.1442 17.2539,-2.21094 z"
       id="path4265"
       inkscape:export-xdpi="10"
       inkscape:export-ydpi="10"
       inkscape:connector-curvature="0" />
    <path
       style="fill:#333333;fill-opacity:1"
       d="m 2999.8105,-427.31445 c -19.3211,-0.20223 -40.1745,3.71691 -59.4531,11.78711 -15.6506,6.5515 -15.6525,6.55518 -10.7949,20.74218 2.2034,6.4348 4.6908,12.44888 5.5273,13.36328 1.2516,1.36821 3.0912,0.87107 10.3868,-2.80273 15.6582,-7.8855 25.8056,-10.08956 46.4687,-10.10156 16.9086,-0.008 18.5864,0.20801 25,3.22851 9.923,4.6731 14.3906,8.96899 18.9395,18.20899 3.2867,6.6763 4.1218,10.06762 4.5683,18.57422 l 0.5449,10.40625 -5.4628,0.66601 c -3.0051,0.3665 -11.0899,0.97115 -17.9649,1.34375 -50.1757,2.7197 -86.7659,20.9397 -100.5351,50.0625 -4.8026,10.158 -6.6002,18.66606 -6.5352,30.93946 0.1,19.0121 5.6798,32.73376 18.5059,45.50976 9.0869,9.0514 20.3599,14.92628 33.4316,17.42188 l 0,0.006 c 26.0526,4.9738 55.0868,-3.1514 73.5703,-20.5879 4.6734,-4.40869 8.7187,-7.79298 8.9902,-7.52148 0.2714,0.2715 1.1478,5.26988 1.9473,11.10938 0.7995,5.8395 2.0382,11.32304 2.7539,12.18554 1.8325,2.2024 33.9066,2.2075 35.7344,0 0.864,-1.0435 0.9232,-5.092 0.1797,-12.1875 -0.6122,-5.8437 -1.3383,-39.5937 -1.6133,-75 -0.4587,-59.06528 -0.7097,-65.32403 -3.0469,-75.89844 -4.7088,-21.30509 -15.9539,-38.97213 -30.8828,-48.51953 -13.1497,-8.4096 -30.9386,-12.73332 -50.2598,-12.93554 z m 42.3301,114.49218 -0.4101,24.24415 c -0.4044,23.8707 -0.4658,24.34737 -3.9746,31.01367 -6.99,13.2804 -21.1367,24.11439 -35.9493,27.52929 -7.5674,1.7445 -20.8214,1.54231 -26.2578,-0.40039 -15.694,-5.6083 -22.4443,-16.14828 -22.4863,-35.11328 -0.02,-8.8355 0.4477,-10.88142 4.1191,-18.07812 9.117,-17.8715 30.9437,-26.98418 68.2989,-28.51367 l 16.6601,-0.68165 z"
       id="path4261"
       inkscape:export-xdpi="10"
       inkscape:export-ydpi="10"
       inkscape:connector-curvature="0" />
    <path
       style="fill:#333333;fill-opacity:1"
       d="m -58.054652,-202.43373 c -1.65062,-1.0435 -1.875,-20.2472 -1.875,-160.50168 0,-87.624 0.46825,-159.7852 1.0405,-160.3581 1.20137,-1.2027 38.97412,-1.4391 40.16475,-0.2513 0.43562,0.4347 0.80737,42.341 0.826,93.125 0.0187,50.784 0.41287,95.0914 0.87625,98.4608 l 0.8425,6.12608 5.4915,-7.35448 c 3.0203702,-4.045 21.26037,-25.7861 40.53325,-48.3136 l 35.04162,-40.9592 23.4555,0 c 14.042752,0 23.760752,0.4939 24.216132,1.2307 0.77687,1.257 -5.78,8.5158 -54.214252,60.0193 -15.19338,16.1563 -27.39625,30 -27.1175,30.7638 0.27887,0.7639 21.4205,29.32858 46.98137,63.47708 29.041132,38.7979 46.210252,62.7768 45.770132,63.9238 -0.58425,1.5225 -4.65325,1.8353 -23.8685,1.8353 -20.439132,0 -23.421632,-0.2585 -25.351752,-2.1976 -1.20313,-1.2087 -18.18612,-24.6559 -37.74013,-52.1049 l -35.5524998,-49.9072 -9.02862,9.8541 c -4.9656302,5.4199 -9.3270002,11.347 -9.6920002,13.1716 -0.36488,1.8247 -0.70813,20.391 -0.76263,41.2588 -0.075,28.4864 -0.48075,38.1837 -1.63037,38.9141 -2.19313,1.3934 -36.16325,1.2055 -38.40625,-0.2124 z"
       id="path4257"
       inkscape:export-xdpi="10"
       inkscape:export-ydpi="10"
       inkscape:connector-curvature="0" />
    <path
       style="fill:#333333;fill-opacity:1"
       d="m 657.25097,-202.24483 c -1.24375,-0.7896 -1.50312,-23.6822 -1.25,-110.2934 l 0.31938,-109.29698 19.20675,-0.3458 c 13.10063,-0.2359 19.757,0.1112 20.9375,1.0906 2.38212,1.9769 2.60825,216.00268 0.23075,218.38018 -1.71937,1.7194 -36.81712,2.1334 -39.44437,0.4654 z"
       id="path4255"
       inkscape:export-xdpi="10"
       inkscape:export-ydpi="10"
       inkscape:connector-curvature="0" />
    <path
       style="fill:#333333;fill-opacity:1"
       d="m 1401.9453,-202.43373 c -1.6506,-1.0435 -1.875,-20.2472 -1.875,-160.50168 0,-87.624 0.4682,-159.7852 1.0405,-160.3581 1.2014,-1.2027 38.9742,-1.4391 40.1649,-0.2513 0.4356,0.4347 0.8073,42.341 0.826,93.125 0.019,50.784 0.4128,95.1078 0.8762,98.4971 l 0.8425,6.16268 5.5514,-7.41268 c 3.0532,-4.0768 21.2932,-25.8343 40.5332,-48.35 l 34.9818,-40.9375 23.4555,0 c 14.0427,0 23.7607,0.4939 24.2161,1.2307 0.7769,1.257 -5.78,8.5158 -54.2143,60.0193 -15.1933,16.1563 -27.3901,30.0162 -27.1037,30.7997 0.2864,0.7836 18.1659,24.97108 39.7323,53.74998 53.9462,71.988 53.7398,71.7011 52.9781,73.6865 -0.549,1.4307 -5.0523,1.7638 -23.8412,1.7638 -20.4408,0 -23.4213,-0.2583 -25.3517,-2.198 -1.2031,-1.209 -18.1824,-24.6602 -37.7316,-52.1141 l -35.5442,-49.916 -9.0167,9.8411 c -6.5374,7.1353 -9.2195,11.0678 -9.7545,14.3017 -0.4059,2.4532 -0.7441,21.1346 -0.7518,41.5141 -0.012,32.6269 -0.2499,37.1444 -1.991,37.8125 -3.2041,1.2296 -35.9762,0.829 -38.0228,-0.4648 z"
       id="path4253"
       inkscape:export-xdpi="10"
       inkscape:export-ydpi="10"
       inkscape:connector-curvature="0" />
    <path
       style="fill:#333333;fill-opacity:1"
       d="m 1955.9334,-202.79843 c -0.8974,-1.0813 -1.4037,-36.2998 -1.5864,-110.3125 l -0.2681,-108.72428 16.5728,-0.3497 c 11.1516,-0.2354 17.1405,0.1212 18.3082,1.0905 1.1759,0.9759 1.7826,4.5151 1.8816,10.9747 0.08,5.244 0.5023,13.1908 0.9375,17.6595 l 0.7914,8.125 4.3561,-8.0367 c 8.8742,-16.3718 27.158,-30.2601 44.6059,-33.8823 7.8964,-1.6392 19.7628,-1.1062 21.8504,0.9814 1.6536,1.6536 2.3778,33.7601 0.8314,36.8526 -0.908,1.8159 -2.2365,2.0464 -8.2382,1.4292 -8.6562,-0.8903 -19.9726,1.0605 -27.699,4.7747 -7.1511,3.4378 -18.8761,14.9928 -22.5797,22.2525 -8.4001,16.4655 -8.0276,12.6203 -8.4704,87.44858 -0.2728,46.0979 -0.8361,68.5922 -1.7453,69.6875 -1.8961,2.2848 -37.6543,2.3112 -39.5482,0.029 z"
       id="path4251"
       inkscape:export-xdpi="10"
       inkscape:export-ydpi="10"
       inkscape:connector-curvature="0" />
    <path
       style="fill:#333333;fill-opacity:1"
       d="m 2573.3415,-202.90973 c -1.0282,-1.2388 -1.3235,-31.1032 -1.0905,-110.3125 l 0.3194,-108.61348 20.625,0 20.625,0 0.3194,108.61348 c 0.233,79.2093 -0.062,109.0737 -1.0905,110.3125 -1.0718,1.2915 -5.8338,1.699 -19.8539,1.699 -14.0201,0 -18.7821,-0.4075 -19.8539,-1.699 z"
       id="path4249"
       inkscape:export-xdpi="10"
       inkscape:export-ydpi="10"
       inkscape:connector-curvature="0" />
    <path
       style="fill:#333333;fill-opacity:1"
       d="m 2678.4225,-202.81173 c -0.912,-1.099 -1.4019,-35.6985 -1.5615,-110.3125 l -0.2327,-108.71118 17.2468,-0.3491 c 9.4859,-0.1922 17.7389,0.1427 18.3402,0.744 0.6012,0.6012 1.3747,5.2583 1.719,10.3491 0.3442,5.0907 0.9213,11.6842 1.2826,14.652 l 0.6567,5.396 7.5911,-8.2843 c 25.5198,-27.8503 64.8974,-35.86 98.3036,-19.9955 6.9996,3.3242 11.6155,6.7697 18.8496,14.07 11.0362,11.1373 17.0602,22.0708 21.5116,39.0428 2.7053,10.315 2.8,12.8251 3.2477,86.03588 0.3466,56.6746 0.095,75.8522 -1.0134,77.1875 -2.0324,2.4487 -37.6805,2.5981 -39.6986,0.1663 -0.903,-1.088 -1.4778,-24.9106 -1.7722,-73.4375 -0.4123,-68.00648 -0.5708,-72.26758 -2.9796,-80.10568 -6.4475,-20.9804 -18.0949,-31.9303 -37.3599,-35.1225 -27.8427,-4.6138 -56.4383,16.6014 -61.7577,45.8181 -0.8594,4.7201 -1.3504,32.05588 -1.3504,75.17878 0,60.6366 -0.2079,67.8413 -1.9772,68.5203 -1.0875,0.4174 -10.0187,0.7588 -19.8469,0.7588 -13.0016,0 -18.2318,-0.4363 -19.1988,-1.6013 z"
       id="path4247"
       inkscape:export-xdpi="10"
       inkscape:export-ydpi="10"
       inkscape:connector-curvature="0" />
    <path
       style="fill:#333333;fill-opacity:1"
       d="m 3148.4627,-202.26883 c -1.2734,-0.8079 -1.6143,-13.6065 -1.6393,-61.5434 -0.017,-33.2877 -0.4189,-61.4808 -0.8922,-62.6511 -0.7083,-1.7507 -3.235,-0.1267 -14.2562,9.1623 -7.3673,6.2096 -13.9767,10.9308 -14.6875,10.4916 -0.7737,-0.4781 -1.2921,-6.8363 -1.2921,-15.8483 l 0,-15.04968 4.0625,-3.7999 c 2.2344,-2.09 8.9073,-7.9455 14.8285,-13.0124 l 10.7661,-9.2122 0.8418,-9.2895 c 0.463,-5.1091 0.7775,-40.873 0.699,-79.4751 -0.079,-38.602 0.2291,-70.5576 0.6838,-71.0123 1.2125,-1.2125 38.976,-1.0105 40.2017,0.215 0.5728,0.5729 1.147,28.6158 1.2757,62.3175 0.1288,33.7016 0.4779,61.5195 0.7759,61.8175 0.2979,0.298 6.3801,-4.5316 13.5159,-10.7324 7.1357,-6.2008 13.9752,-11.2843 15.199,-11.2967 2.0357,-0.02 2.1951,1.3277 1.875,15.8641 l -0.3499,15.8865 -15,12.9924 -15,12.9922 -0.625,79.91738 c -0.5413,69.2154 -0.8761,80.0759 -2.5,81.1019 -2.2884,1.4459 -36.2345,1.5911 -38.4828,0.1646 z"
       id="path4245"
       inkscape:export-xdpi="10"
       inkscape:export-ydpi="10"
       inkscape:connector-curvature="0" />
    <path
       style="fill:#333333;fill-opacity:1"
       d="m -1798.5176,-1309.5391 c -21.2765,-0.1708 -42.3106,4.2365 -61.6035,13.2774 -36.764,17.2282 -66.4644,47.7764 -97.7539,100.539 l -9.5547,16.1114 -0.3027,-8.6114 c -0.1663,-4.7362 -0.4475,-32.9608 -0.625,-62.7207 -0.2773,-46.4625 -0.5873,-54.2862 -2.1973,-55.3593 -1.0313,-0.6874 -6.6563,-1.0463 -12.5,-0.7989 l -10.625,0.4493 -78.75,34.7773 c -43.3125,19.1276 -79.5187,35.4845 -80.457,36.3477 -1.4346,1.3198 -1.262,2.9301 1.0859,10.1308 4.1016,12.5796 4.0404,12.5478 16.4004,8.3594 9.1026,-3.0845 12.3481,-3.5469 24.8457,-3.5469 12.4239,0 15.0723,0.3729 19.5195,2.752 8.5039,4.5494 12.7531,8.91 16.5938,17.0312 7.2453,15.3206 6.8901,-0.931 7.3496,336.46682 0.4261,312.853 0.1587,337.04919 -3.9277,354.55859 -3.3292,14.266 -11.4478,24.14567 -25.1485,30.60547 -13.4191,6.3271 -21.9032,8.14817 -41.2617,8.85937 -9.625,0.3536 -18.2031,1.20929 -19.0625,1.90039 -2.0844,1.6768 -2.1373,21.12648 -0.062,23.20118 2.2266,2.17639 273.5713,2.17679 275.7481,0 2.076,-2.0755 2.0231,-21.53204 -0.062,-23.17774 -0.8594,-0.6782 -8.0312,-1.56726 -15.9375,-1.97656 -28.5702,-1.4791 -42.9469,-6.15559 -54.5489,-17.74219 -10.2415,-10.2279 -13.1021,-17.74831 -15.4414,-40.60351 -0.6796,-6.6414 -1.2233,-57.52036 -1.2363,-115.44336 l -0.021,-103.56836 5.9375,5.19922 c 19.9725,17.4855 35.0465,26.70525 54.0625,33.06445 31.1621,10.4211 73.7044,12.19411 108.8535,4.53711 60.6378,-13.2096 111.9154,-55.85896 149.5821,-124.41406 20.2077,-36.7788 34.2842,-80.7112 40.8554,-127.5 6.2452,-44.46882 6.052,-96.04302 -0.5215,-139.38082 -13.4689,-88.7979 -59.0224,-164.0611 -118.1367,-195.1817 -22.5572,-11.8752 -46.9823,-17.9489 -71.0957,-18.1426 z m -48.4316,93.625 c 1.3122,0.011 2.6108,0.052 3.8945,0.125 14.5891,0.8314 23.875,3.2078 36.875,9.4336 25.5201,12.2217 47.9537,37.0567 65.0586,72.0215 8.8835,18.1592 13.5172,31.0468 19.3691,53.8828 8.5257,33.2702 12.4566,68.9742 12.4336,112.92972 -0.031,62.4293 -9.3551,111.25044 -28.7207,150.37304 -20.2268,40.8621 -47.5487,65.50433 -81.2656,73.29883 -17.7753,4.1092 -43.22,3.92409 -60.625,-0.44141 -10.068,-2.5253 -26.6388,-9.91715 -34.7617,-15.50586 -23.1002,-15.89339 -42.3106,-43.3282 -48.25,-68.9121 -4.5734,-19.6992 -5.1133,-38.17537 -5.1133,-174.75582 l 0,-132.1211 12.0664,-13.7481 c 17.3695,-19.7938 41.0733,-42.978 50.0352,-48.9355 16.7294,-11.1209 39.3209,-17.8154 59.0039,-17.6446 z"
       id="path4243"
       inkscape:export-xdpi="10"
       inkscape:export-ydpi="10"
       inkscape:connector-curvature="0" />
    <path
       style="fill:#333333;fill-opacity:1"
       d="m 664.9831,-461.84881 c -8.53113,-3.7455 -15.51263,-15.0342 -15.53075,-25.1124 -0.0412,-23.1631 28.79275,-34.9972 45.66775,-18.7427 13.37825,12.8864 9.41462,35.7106 -7.539,43.4125 -5.90388,2.6821 -17.002,2.8995 -22.598,0.4426 z"
       id="path4239"
       inkscape:export-xdpi="10"
       inkscape:export-ydpi="10"
       inkscape:connector-curvature="0" />
    <path
       style="fill:#333333;fill-opacity:1"
       d="m 1087.5703,-462.32271 c -9.4495,-4.3612 -14.375,-12.7186 -14.375,-24.391 0,-8.6077 1.2415,-11.8463 6.9738,-18.1911 3.322,-3.6772 6.429,-5.6114 11.2782,-7.0211 11.9941,-3.4868 21.5254,-0.334 29.7006,9.8247 6.7493,8.3867 6.0475,24.6953 -1.4459,33.6007 -6.8642,8.1577 -21.6728,11.0048 -32.1317,6.1778 z"
       id="path4237"
       inkscape:export-xdpi="10"
       inkscape:export-ydpi="10"
       inkscape:connector-curvature="0" />
    <path
       style="fill:#333333;fill-opacity:1"
       d="m 2580.4979,-462.41871 c -9.7836,-5.3128 -16.1314,-18.043 -14.2171,-28.5125 4.769,-26.0831 41.1058,-30.521 51.2262,-6.2564 4.6703,11.1974 0.3477,26.1588 -9.537,33.0088 -6.8535,4.7496 -20.3717,5.6156 -27.4721,1.7601 z"
       id="path4235"
       inkscape:export-xdpi="10"
       inkscape:export-ydpi="10"
       inkscape:connector-curvature="0" />
    <path
       style="fill:#333333;fill-opacity:1"
       d="m -2386.8047,-1309.2676 c -18.1413,-0.044 -31.4529,0.521 -37.5,1.5918 -48.8342,8.6473 -87.0316,28.6151 -121.5273,63.5274 -21.8781,22.1424 -35.3911,40.6846 -48.1465,66.0625 -22.5292,44.8237 -34.1625,95.2907 -36.4238,158.0254 -3.6144,100.27604 17.7067,178.85459 63.8964,235.49409 40.008,49.0592 89.2376,77.56888 143.8907,83.32618 33.5996,3.5395 68.2361,-1.53823 97.08,-14.23243 40.0604,-17.6305 76.4659,-54.07216 105.6309,-105.73046 16.3614,-28.98011 30.5582,-70.09078 35.0117,-101.39258 l 0.8184,-5.75977 -8.3906,-5.86523 c -4.6145,-3.2258 -9.2551,-5.69674 -10.3145,-5.49024 -1.1806,0.23 -4.6553,7.1486 -8.9766,17.875 -22.191,55.0826 -45.8612,84.69846 -81.9238,102.50196 -22.0867,10.9038 -43.6666,15.22226 -70,14.00976 -41.9157,-1.9299 -74.9265,-17.44828 -108.125,-50.83008 -23.5072,-23.637 -38.9523,-46.93932 -51.1894,-77.23242 -14.0979,-34.8996 -21.4605,-72.64408 -23.4161,-120.03708 -0.6541,-15.8516 -0.4837,-19.4645 0.9668,-20.3867 1.0186,-0.6476 77.1357,-1.1192 180.293,-1.1192 98.1913,0 179.135,-0.3701 179.8731,-0.8262 1.5575,-0.9626 0.6232,-27.6434 -1.5254,-43.58 -7.7834,-57.7294 -27.0889,-99.0735 -63.0664,-135.0664 -28.6942,-28.7066 -55.7333,-43.3946 -95.6856,-51.9766 -11.3424,-2.4364 -16.9448,-2.8297 -41.25,-2.8887 z m -33.6152,46.7012 c 8.5188,-0.1248 16.8113,0.706 24.0703,2.5625 20.5506,5.256 44.5448,20.965 58.1269,38.0566 20.1685,25.3799 26.4024,45.2677 30.8946,98.5489 l 0.8164,9.6875 -120.2637,0 -120.2637,0 0.8379,-6.5625 c 5.9283,-46.3684 21.7614,-82.1804 47.6758,-107.8438 10.3556,-10.2552 25.7978,-21.0854 37.3457,-26.1914 11.7329,-5.1877 26.5618,-8.0498 40.7598,-8.2578 z"
       id="path4233"
       inkscape:export-xdpi="10"
       inkscape:export-ydpi="10"
       inkscape:connector-curvature="0" />
    <path
       style="fill:#333333;fill-opacity:1"
       d="m -879.94336,-1309.4238 c -25.68234,0.1357 -51.31771,4.2042 -74.26367,12.1465 -35.7325,12.3681 -73.29187,37.3192 -97.45507,64.7402 -41.9851,47.6461 -73.4993,120.8385 -81.8399,190.0762 -9.9974,82.99125 8.3573,164.98956 51.7618,231.24996 43.8043,66.8709 99.01431,102.82416 168.68551,109.84766 46.514,4.6891 93.4841,-3.77965 133.125,-24.00195 62.4029,-31.834 104.95672,-86.82701 133.16992,-172.09571 23.3891,-70.6888 26.18024,-143.24676 8.05274,-209.38866 -14.574,-53.1764 -40.52133,-98.2828 -78.01563,-135.6231 -29.8804,-29.7575 -58.70375,-47.0265 -96.93945,-58.08 -20.92172,-6.0483 -43.62036,-8.9909 -66.28125,-8.8711 z m -17.48633,44.082 c 20.4712,0.049 31.14982,2.3702 48.04492,10.4473 21.1723,10.1219 38.02653,25.8053 54.89063,51.0761 39.5458,59.2593 57.90131,134.3815 57.82031,236.62113 -0.0633,79.3075 -9.79671,129.57089 -32.07031,165.61329 -8.3164,13.4575 -28.25707,33.07541 -40.82227,40.1621 -11.3351,6.393 -23.49558,10.81486 -34.73828,12.63086 -9.5804,1.5475 -27.8264,1.50231 -37.4414,-0.0918 -22.1338,-3.6697 -42.25619,-14.69743 -61.27149,-33.57813 -24.3612,-24.1888 -43.76534,-58.72441 -59.56252,-106.00781 -15.1054,-45.2123 -22.4888,-91.5683 -23.8301,-149.61714 -1.4283,-61.822 4.9898,-107.2465 20.5293,-145.2911 17.6122,-43.1193 41.94371,-67.111 79.70121,-78.5878 10.0062,-3.0416 13.1846,-3.414 28.75,-3.377 z"
       id="path4229"
       inkscape:export-xdpi="10"
       inkscape:export-ydpi="10"
       inkscape:connector-curvature="0" />
    <path
       style="fill:#333333;fill-opacity:1"
       d="m -347.84853,-701.34581 c -23.8635,-3.2156 -50.67062,-12.5068 -70.26975,-24.355 -28.5795,-17.277 -58.00425,-46.2254 -79.293,-78.0094 -16.86725,-25.1826 -33.49225,-65.6484 -41.08412,-100 -7.78638,-35.232 -9.96638,-60.8662 -9.22388,-108.46179 0.48238,-30.9251 1.12263,-41.7604 3.28463,-55.584 11.3995,-72.8907 39.56725,-128.9756 88.37025,-175.9542 36.191,-34.8381 73.33675,-54.1749 120.50975,-62.7334 20.6005,-3.7374 57.04912,-3.7033 77.998,0.073 41.00088,7.3913 74.56375,25.4296 102.0675,54.8563 33.52963,35.8738 45.56463,77.1921 31.28138,107.3942 -10.86463,22.9732 -38.09625,33.1146 -68.22675,25.4085 -11.7515,-3.0056 -19.11638,-7.126 -27.2185,-15.2281 -10.25388,-10.2539 -14.7245,-23.0218 -17.86438,-51.0207 -2.12687,-18.9654 -6.48662,-36.169 -11.52787,-45.4882 -8.13313,-15.035 -23.32425,-26.5654 -41.50938,-31.5064 -11.47988,-3.1191 -38.4075,-3.1587 -51.63813,-0.076 -29.51587,6.8772 -51.7685,23.0653 -70.77225,51.4849 -19.27387,28.8235 -31.01137,61.5691 -37.17475,103.7107 -3.09025,21.1302 -3.09187,77.2532 0,99.375 6.06775,43.45369 15.8945,76.38949 32.96063,110.47229 18.3485,36.6438 37.81837,60.2779 63.16475,76.6744 36.707,23.7456 87.88338,26.3461 129.4815,6.5794 18.91525,-8.9881 40.379,-25.7128 53.05288,-41.339 13.8,-17.0147 30.14687,-46.05 42.1615,-74.8871 3.00762,-7.2187 6.13575,-13.8739 6.9515,-14.7893 1.21875,-1.3676 2.85987,-0.9694 9.20637,2.2344 4.24788,2.1443 8.0785,4.8243 8.51263,5.9557 1.12087,2.9209 -2.78625,21.5195 -9.2385,43.9766 -21.33175,74.2458 -58.34313,127.5838 -113.24038,163.1937 -19.77687,12.8285 -43.34412,22.2888 -65.577,26.3235 -13.56225,2.4613 -42.859,3.375 -55.14175,1.7199 z"
       id="path4225"
       inkscape:export-xdpi="10"
       inkscape:export-ydpi="10"
       inkscape:connector-curvature="0" />
    <path
       style="fill:#333333;fill-opacity:1"
       d="m 220.96094,-1309.7578 c -65.65211,-0.725 -119.86337,22.5071 -165.359378,70.8203 -53.3319993,56.6345 -79.849871,136.3746 -79.888671,240.22656 -0.04075,108.3801 32.2098436,191.25012 96.214843,247.23242 32.682136,28.5856 68.899326,44.92804 111.267576,50.20704 13.9595,1.7393 46.02591,0.49862 60.12891,-2.32618 34.40213,-6.8907 63.53621,-22.19266 89.79883,-47.16406 33.3495,-31.7098 61.24495,-76.45716 76.87695,-123.32226 5.98188,-17.9338 12.37174,-46.09759 11.72461,-51.67579 -0.30437,-2.6234 -2.26255,-4.81092 -7.9043,-8.82812 -4.125,-2.9372 -8.52566,-5.20607 -9.77929,-5.04297 -1.66137,0.216 -3.61875,3.85422 -7.21875,13.41992 -7.229,19.2086 -18.87763,42.6205 -28.29688,56.875 -9.61787,14.5553 -28.31196,33.88357 -40.33008,41.69727 -48.29313,31.3982 -112.72678,30.29219 -162.33203,-2.78711 -31.22475,-20.8223 -56.17157,-49.59146 -73.845702,-85.16016 -20.25462,-40.762 -29.578411,-82.63929 -31.769531,-142.67966 l -0.554688,-15.1817 3.925782,-0.7851 c 2.15937,-0.4318 82.682579,-0.7586 178.939449,-0.7266 96.25675,0.029 175.99609,0.045 177.19922,0.029 1.95425,-0.026 2.1875,-1.5569 2.1875,-14.3418 0,-25.6679 -5.8582,-59.7958 -14.54883,-84.7637 -21.253,-61.058 -65.97566,-106.998 -122.55078,-125.8847 -19.71175,-6.5805 -33.26302,-8.8651 -57.49414,-9.6934 -2.14171,-0.073 -4.27281,-0.1211 -6.39062,-0.1445 z m -34.74024,47.2422 c 8.51963,-0.016 16.98663,0.8012 23.45313,2.4551 38.9265,9.9557 71.72166,43.2468 82.26953,83.5175 3.01238,11.5011 6.05038,32.8837 7.09375,49.9356 l 0,0 0.78906,12.8965 -119.74609,0 -119.744142,0 0.839843,-9.0625 c 1.81913,-19.6183 9.027563,-45.6853 17.726563,-64.1074 16.89838,-35.7859 49.850936,-64.6142 83.554686,-73.0938 6.67175,-1.6787 15.24405,-2.5269 23.76367,-2.5429 z"
       id="path4223"
       inkscape:export-xdpi="10"
       inkscape:export-ydpi="10"
       inkscape:connector-curvature="0" />
    <path
       style="fill:#333333;fill-opacity:1"
       d="m 1963.1954,-701.33921 c -44.5709,-6.8365 -83.0195,-41.0511 -100.3464,-89.2956 -3.7497,-10.441 -8.9972,-33.4591 -10.8172,-47.4503 -4.0375,-31.037 -4.245,-39.4436 -5.0603,-204.99999 -0.7634,-155.0086 -1.0104,-169.5087 -3.0331,-178.0672 -3.7844,-16.012 -10.8507,-26.784 -22.755,-34.688 -10.0464,-6.6704 -20.5846,-9.2089 -41.628,-10.0275 -17.312,-0.6734 -17.9792,-0.6084 -17.0982,1.666 2.7643,7.1363 4.4865,17.1714 4.4733,26.0668 -0.026,17.83 -4.7823,30.108 -16.526,42.6619 -12.5012,13.3639 -27.3096,18.3532 -44.0666,14.8472 -10.797,-2.259 -20.4326,-7.5429 -34.6214,-18.9853 -15.6702,-12.6372 -27.0661,-19.9693 -33.8614,-21.7868 -4.844,-1.2956 -6.4643,-1.1899 -11.5523,0.7532 -14.8282,5.6629 -39.1076,37.8115 -59.9654,79.4008 l -6.892,13.7422 0,146.05379 c 0,153.4971 0.3128,163.7702 5.6241,184.7241 3.4447,13.59 7.3301,21.6145 14.2825,29.4975 11.9903,13.5951 29.4153,21.1763 54.0892,23.5328 7.7711,0.7421 14.8536,1.595 15.7388,1.8953 1.1938,0.4049 1.5168,3.5392 1.25,12.1296 l -0.3596,11.5836 -135,0 -135.0001,0 -0.3596,-11.5836 c -0.2668,-8.5904 0.056,-11.7247 1.25,-12.1296 0.8852,-0.3003 7.8435,-1.1408 15.4627,-1.8677 32.7126,-3.1213 48.8521,-11.9313 58.1134,-31.7223 1.9952,-4.2637 4.2849,-10.5522 5.0881,-13.9745 1.8899,-8.0525 2.7841,-327.98239 1.023,-365.99719 -1.7666,-38.1359 -5.1305,-50.4579 -16.4104,-60.1131 -11.7383,-10.0475 -29.0106,-10.6986 -54.5994,-2.0582 -5.5567,1.8763 -8.3954,2.2942 -9.4784,1.3954 -0.8504,-0.7058 -2.5813,-5.8156 -3.8465,-11.3553 -1.9878,-8.7033 -2.0587,-10.3049 -0.5217,-11.7847 0.9783,-0.9419 37.0778,-17.2312 80.2212,-36.1984 l 78.4422,-34.4858 11.0922,0 c 7.7489,0 11.5114,0.5051 12.483,1.6758 0.968,1.1665 1.4895,19.8773 1.7155,61.5625 l 0.3248,59.8867 5.5071,-10 c 23.141,-42.0204 50.7773,-76.9089 74.0635,-93.4995 9.7529,-6.9486 26.3123,-14.8788 36.0544,-17.2664 3.7813,-0.9267 12.2188,-1.6548 18.75,-1.6181 23.472,0.1319 42.9677,9.3994 57.2151,27.1976 l 5.9099,7.3827 0.625,-8.5982 0.625,-8.5981 92.2236,-0.3206 c 73.1245,-0.2542 92.3438,0.01 92.8039,1.25 0.3191,0.8638 0.7591,94.1018 0.9779,207.1956 0.357,184.65309 0.611,207.03139 2.49,219.41509 4.9827,32.8373 11.8121,49.1776 26.071,62.3792 22.7383,21.0523 55.0008,27.4612 85.9391,17.0717 27.5471,-9.2507 48.5585,-23.5805 79.8444,-54.4539 l 20.3498,-20.0817 -0.4247,-176.22769 c -0.4742,-196.774 0.097,-184.3263 -9.3296,-203.0565 -3.2599,-6.4768 -6.3073,-10.5529 -9.9675,-13.3326 -9.5558,-7.2569 -27.2839,-12.3452 -47.6145,-13.6664 -17.3123,-1.125 -16.0953,-0.2959 -17.1004,-11.6501 -0.5801,-6.5533 -0.3993,-10.7576 0.5381,-12.509 l 1.4119,-2.6381 89.2573,0 c 51.193,0 89.5521,0.4772 89.9488,1.119 0.3804,0.6155 0.767,94.6936 0.8592,209.0625 0.093,114.36889 0.6515,217.22469 1.2427,228.56849 2.1556,41.3509 8.4353,58.461 24.1404,65.7741 10.5789,4.926 28.5312,3.1938 46.2447,-4.462 5.023,-2.1709 6.451,-2.364 7.7585,-1.0488 2.6129,2.628 8.581,20.8668 7.2588,22.1826 -0.6454,0.6422 -36.3272,16.9659 -79.2927,36.275 l -78.1193,35.1075 -13.1307,-0.3517 -13.1307,-0.3517 -0.625,-58.6696 -0.625,-58.6698 -12.3857,14.2947 c -18.5598,21.4204 -63.6306,65.7432 -75.1658,73.9185 -19.2244,13.6247 -38.2398,22.1531 -59.5265,26.6977 -11.3837,2.4303 -37.7009,3.338 -48.547,1.6744 z"
       id="path4219"
       inkscape:export-xdpi="10"
       inkscape:export-ydpi="10"
       inkscape:connector-curvature="0" />
    <path
       style="fill:#333333;fill-opacity:1"
       d="m 1214.471,-711.29531 c -35.5992,-9.3195 -62.2116,-36.2795 -71.9581,-72.8983 -7.5469,-28.3549 -7.2676,-19.308 -7.7316,-250.43699 l -0.4247,-211.5455 -40.8932,-0.3295 -40.8931,-0.3295 -0.3594,-10.8108 -0.3592,-10.8107 10.3813,-5.6589 c 36.4822,-19.8865 74.7759,-58.262 103.1722,-103.3928 12.8647,-20.4463 26.4047,-49.7103 40.956,-88.5188 5.3241,-14.1995 6.3638,-15.183 16.0516,-15.183 10.3451,0 9.4937,-8.2689 9.8449,95.625 l 0.3126,92.5 60.625,0.625 60.625,0.625 0,22.5 0,22.5 -60.9375,0.3244 -60.9375,0.3244 0,192.3556 c 0,124.38539 0.4606,196.92989 1.3035,205.30059 2.6555,26.3732 7.9946,41.684 18.0386,51.7279 19.7554,19.7554 52.2999,16.7409 75.6579,-7.008 5.1525,-5.2387 10.1885,-12.1049 13.7653,-18.7679 l 5.6402,-10.507 11.5473,-0.3594 c 13.6134,-0.4237 13.4405,-0.7104 8.2807,13.7224 -5.1669,14.4529 -15.2659,34.3046 -24.3605,47.8853 -20.1638,30.1101 -51.501,53.5097 -81.123,60.575 -14.0792,3.3581 -33.3221,3.3442 -46.2243,-0.034 z"
       id="path4217"
       inkscape:export-xdpi="10"
       inkscape:export-ydpi="10"
       inkscape:connector-curvature="0" />
    <path
       style="fill:#333333;fill-opacity:1"
       d="m -3332.0723,-1567.4531 c -56.7814,0.036 -101.5025,0.271 -102.7558,0.7519 -2.9153,1.1187 -2.9153,23.6138 0,24.7324 1.0875,0.4175 10.8961,0.7579 21.7949,0.7579 23.8999,0 34.2928,1.8784 48.1035,8.6914 27.6401,13.6351 34.7701,29.5049 38.1856,84.998 0.9262,15.0522 1.198,115.8909 0.8652,321.3106 -0.4981,307.42755 -0.4769,306.01473 -5.3106,329.19723 -5.043,24.1865 -20.525,41.16052 -44.7929,49.10742 -9.1808,3.0064 -12.4391,3.38575 -32.6973,3.81445 -12.375,0.2619 -23.7656,0.74743 -25.3125,1.07813 -2.6745,0.5719 -2.8125,1.17705 -2.8125,12.34765 0,8.2267 0.4682,11.93756 1.5625,12.38086 0.8594,0.3476 76.0937,0.53687 167.1875,0.41797 l 165.625,-0.21679 0.3633,-11.06055 c 0.2323,-7.0805 -0.1594,-11.6914 -1.0898,-12.8125 -1.1377,-1.3707 -5.8806,-1.75195 -21.8165,-1.75195 -25.1836,0 -36.3957,-1.94979 -50.1171,-8.7129 -18.0403,-8.89169 -27.5502,-20.9033 -32.1914,-40.6621 -4.8117,-20.4836 -4.8732,-22.4756 -5.379,-172.5 l -0.496,-147.50002 39.5468,0.062 39.5489,0.062 130.0019,195.56252 c 71.501,107.5588 130.88,196.54876 131.9531,197.75586 1.8355,2.06449 8.1106,2.1756 105.8145,1.875 l 103.8613,-0.32032 0,-12.5 0,-12.5 -12.8183,-2.09179 c -16.4402,-2.6854 -37.0375,-7.85065 -49.2129,-12.33985 -41.4971,-15.3005 -66.3022,-36.46416 -107.1836,-91.44726 -11.2937,-15.1893 -184.1907,-275.76566 -185.8575,-280.10936 -0.4894,-1.2753 2.2151,-2.476 10.3301,-4.586 24.845,-6.46 56.4691,-19.4891 77.0957,-31.7617 42.8325,-25.485 75.7517,-66.078 90.711,-111.8554 14.1013,-43.1516 14.5188,-92.9999 1.1484,-137.0586 -9.7517,-32.1341 -27.7039,-60.0787 -56.043,-87.2344 -44.59,-42.7278 -95.7701,-59.3657 -198.7949,-64.6231 -16.2432,-0.8288 -144.3818,-1.32 -239.0176,-1.2597 z m 207.711,50.3261 c 6.6106,-0.043 12.6745,0.2149 18.1836,0.7754 38.5686,3.9245 68.6285,17.3349 94.2754,42.0586 24.6606,23.7728 40.3289,53.5468 47.8691,90.9649 3.8132,18.9228 4.1366,63.8836 0.5859,81.4922 -4.7085,23.3509 -13.2263,44.0013 -26.1699,63.4492 -9.4403,14.1841 -31.7734,36.9572 -44.707,45.5879 -27.1426,18.1126 -59.6373,29.3451 -100.2344,34.6465 -15.1139,1.9737 -53.5115,3.2776 -69.4336,2.3574 l -9.0625,-0.5254 0,-174.7617 0,-174.7618 14.6875,-2.7656 c 29.4242,-5.5405 54.1739,-8.3869 74.0059,-8.5176 z"
       id="path4215"
       inkscape:export-xdpi="10"
       inkscape:export-ydpi="10"
       inkscape:connector-curvature="0" />
    <path
       style="fill:#333333;fill-opacity:1"
       d="m -1553.0106,-719.87791 c -1.6351,-3.0553 -1.6915,-17.0038 -0.081,-20.0134 0.967,-1.807 3.4399,-2.444 12.1875,-3.1395 22.1488,-1.7612 39.2124,-6.9517 50.0645,-15.229 5.5419,-4.227 12.1222,-14.3646 15.3027,-23.5753 4.2216,-12.2261 4.9875,-42.6931 4.7921,-190.625 -0.1846,-139.78959 -1.1019,-195.95429 -3.4469,-211.06839 -2.956,-19.0515 -8.8707,-29.5296 -20.2124,-35.8066 -6.3286,-3.5026 -7.6005,-3.7413 -19.2757,-3.6172 -9.8221,0.1044 -14.9101,0.8713 -23.75,3.5798 -6.1875,1.8959 -12.1568,3.7096 -13.2651,4.0304 -1.1753,0.3403 -2.393,-0.3703 -2.9218,-1.7048 -1.9261,-4.8609 -5.3641,-19.803 -4.8592,-21.1187 0.6881,-1.7931 -3.389,0.068 84.2938,-38.4871 l 75.7482,-33.3074 10.5023,0.019 c 5.7763,0.01 11.346,0.5522 12.3773,1.2038 1.6164,1.0213 1.923,9.5027 2.223,61.4844 l 0.3479,60.2998 8.8628,-15.5661 c 37.7579,-66.3152 74.7407,-100.5333 114.9158,-106.3253 13.8659,-1.999 29.6982,0.4798 42.7979,6.7007 16.4234,7.7995 31.3259,24.5195 37.3013,41.8508 4.0024,11.6085 3.9951,32.3446 -0.015,43.3568 -9.2988,25.5348 -31.7503,40.5689 -55.0773,36.8814 -8.8605,-1.4007 -22.5741,-8.0772 -32.2096,-15.6813 -4.2507,-3.3545 -11.1768,-8.8312 -15.3913,-12.1703 -9.384,-7.4349 -22.7729,-14.5634 -27.2836,-14.5264 -16.1595,0.1326 -40.8056,29.2355 -65.4284,77.2604 l -8.5432,16.6629 0,150.21209 c 0,154.8783 0.2262,162.7543 5.147,182.0872 3.5717,14.033 8.0371,22.1272 17.2582,31.2834 13.7481,13.6512 26.5655,18.8371 52.8969,21.4019 7.7381,0.7538 14.4826,2.0048 14.9877,2.7801 1.5434,2.3689 1.1,20.1411 -0.5433,21.7846 -1.1479,1.1479 -32.8235,1.5 -134.956,1.5 -130.6648,0 -133.4832,-0.051 -134.75,-2.4179 z"
       id="path4211"
       inkscape:export-xdpi="10"
       inkscape:export-ydpi="10"
       inkscape:connector-curvature="0" />
    <path
       style="fill:#333333;fill-opacity:1"
       d="m 469.7011,-718.95431 c -1.64837,-1.6484 -2.0975,-19.4388 -0.54913,-21.7538 0.519,-0.776 7.04451,-1.7152 15.00538,-2.1597 41.63575,-2.3248 53.75688,-14.0236 61.743,-59.5923 1.76188,-10.0528 2.589,-312.56289 0.95013,-347.49999 -1.67888,-35.7912 -4.66188,-50.6206 -12.46375,-61.9603 -5.72625,-8.3228 -12.86288,-11.1935 -27.44138,-11.0383 -9.78838,0.1042 -14.04437,0.8373 -24.22088,4.1719 -14.41987,4.7251 -13.67737,5.0616 -18.87025,-8.552 -2.52637,-6.623 -3.18112,-9.8067 -2.30312,-11.1986 0.67475,-1.0696 36.61762,-17.5677 79.873,-36.6623 l 78.64625,-34.7176 11.4095,-0.021 c 8.03387,-0.015 11.82075,0.4742 12.79975,1.6538 0.96487,1.1627 1.48975,19.1718 1.7155,58.8579 l 0.32525,57.1827 13.75,-16.6117 c 32.67688,-39.4777 67.4875,-69.4565 99.11063,-85.354 47.25825,-23.7574 101.69397,-19.3988 139.01997,11.1311 26.7481,21.8781 47.8543,64.7568 54.1908,110.0924 1.0494,7.5083 2.2702,15.9014 2.713,18.6514 0.4428,2.75 1.2476,80.9375 1.7886,173.74999 0.6794,116.581 1.432,171.8415 2.4342,178.75 3.1861,21.9585 7.1708,32.1991 16.50189,42.4088 9.867,10.796 20.364,14.3367 48.61586,16.3981 6.5313,0.4765 12.2882,1.5025 12.7934,2.2798 1.5432,2.3751 1.1001,20.1448 -0.5434,21.7883 -1.1472,1.1473 -31.8514,1.5 -130.58095,1.5 -126.33937,0 -129.1085,-0.051 -130.375,-2.4178 -0.71175,-1.3298 -1.294,-5.8668 -1.294,-10.0822 0,-11.2828 1.00312,-12.4956 10.3565,-12.5217 22.61312,-0.063 41.7371,-4.3381 51.8302,-11.5864 10.0623,-7.2262 18.8433,-23.5019 21.5314,-39.9086 1.7444,-10.6465 1.7321,-314.23639 -0.014,-332.93839 -5.6962,-61.0306 -21.671,-89.7701 -55.63315,-100.0864 -10.90312,-3.312 -35.1405,-3.0907 -49.32163,0.4503 -33.12512,8.2713 -66.20712,30.4501 -96.98875,65.0232 l -10.51125,11.806 0,164.00609 c 0,168.836 0.52275,190.4303 4.95463,204.6699 4.61475,14.8274 15.78875,27.5961 28.2195,32.247 6.97337,2.6091 19.31525,4.5075 39.32587,6.0492 l 11.875,0.9148 0,11.875 0,11.875 -129.43175,0.3183 c -99.63387,0.245 -129.77837,-0.028 -130.9375,-1.1875 z"
       id="path4209"
       inkscape:export-xdpi="10"
       inkscape:export-ydpi="10"
       inkscape:connector-curvature="0" />
    <path
       style="fill:#333333;fill-opacity:1"
       d="m 2363.4512,-718.95431 c -1.6489,-1.6489 -2.0966,-19.4127 -0.5492,-21.7941 0.5051,-0.7774 6.2622,-1.8156 12.7934,-2.3072 25.5835,-1.9257 37.3799,-5.8441 47.0445,-15.6265 10.9706,-11.1043 15.6954,-25.2829 17.9997,-54.0163 1.9186,-23.921 0.9142,-333.79819 -1.1497,-354.76169 -1.8895,-19.1917 -4.5254,-30.8616 -8.9874,-39.7911 -8.4232,-16.8563 -25.8742,-20.4953 -54.4262,-11.3493 -14.2724,4.5719 -13.3448,5.052 -18.721,-9.6888 -2.9075,-7.972 -3.1447,-9.5577 -1.6417,-10.9778 0.9663,-0.9128 36.3505,-17.0154 78.6318,-35.7834 l 76.875,-34.1236 12.2292,-0.5114 c 8.4463,-0.3533 12.7963,-0.041 14.0625,1.01 1.5625,1.2967 1.8365,10.1309 1.8556,59.8059 l 0.022,58.2845 7.8118,-8.125 c 4.2965,-4.4688 18.2084,-19.2828 30.9152,-32.9202 12.7069,-13.6373 27.0411,-28.1516 31.8535,-32.2541 25.5982,-21.8212 54.4785,-36.6279 84.0408,-43.087 12.6122,-2.7556 39.8672,-2.8289 52.8342,-0.1421 39.314,8.1462 72.262,34.0858 91.0519,71.6844 3.8113,7.6261 11.3736,28.7284 13.972,38.9873 0.7514,2.9664 1.7984,5.2164 2.3268,5 0.5283,-0.2163 7.064,-7.7058 14.5233,-16.6433 36.9118,-44.2256 63.9439,-68.3426 93.126,-83.0834 57.4385,-29.014 119.5223,-23.3051 160.1815,14.7297 21.8385,20.4288 40.9785,58.5082 47.2368,93.9787 4.9477,28.0424 5.3936,38.3932 5.8685,136.25 1.1537,237.76069 1.1987,241.09839 3.4217,253.74999 2.7032,15.384 7.6408,25.5498 16.1423,33.2346 10.997,9.9406 22.7886,13.9303 48.3992,16.3758 l 10.625,1.0146 0,11.875 0,11.875 -130,0 -130,0 0,-11.875 0,-11.875 14.375,-0.8717 c 32.9628,-1.999 51.9485,-11.3271 61.4783,-30.2055 7.5126,-14.8823 7.2702,-8.5494 7.2516,-189.5478 -0.013,-101.74059 -0.4984,-169.96429 -1.2647,-176.87499 -2.7339,-24.6507 -7.6379,-43.6856 -14.0834,-54.6658 -9.2588,-15.7724 -24.5494,-28.416 -40.6243,-33.5917 -10.6872,-3.441 -35.4352,-4.6526 -48.3025,-2.3648 -31.356,5.5752 -60.9413,23.404 -97.1421,58.5399 l -17.6054,17.0876 0.2009,167.49739 c 0.1908,159.0517 0.7884,190.1233 3.9265,204.1264 1.8549,8.2763 5.7804,15.0336 12.5828,21.6593 11.2762,10.9834 25.8028,15.7037 56.0823,18.2235 l 11.875,0.9882 0,11.875 0,11.875 -133.125,0 -133.125,0 -0.3596,-11.5836 c -0.2667,-8.5898 0.056,-11.7251 1.25,-12.1312 0.8853,-0.3012 8.8551,-1.1391 17.7106,-1.8621 33.4063,-2.7271 46.9605,-9.7859 57.4677,-29.928 8.0226,-15.3792 7.6813,-6.9614 7.6813,-189.4951 0,-180.56639 0.1392,-176.49659 -6.9682,-203.90199 -7.9481,-30.6477 -28.3285,-53.8877 -54.9068,-62.6108 -9.391,-3.0822 -12.4397,-3.4812 -26.25,-3.4355 -26.0787,0.086 -46.1445,7.3255 -76.2138,27.4959 -21.8847,14.6801 -40.3769,30.9596 -52.9465,46.6108 l -3.3397,4.1584 0.013,165.84159 c 0.012,165.7209 0.4667,186.5061 4.449,203.8378 3.9219,17.068 15.0967,31.1956 28.702,36.286 6.7684,2.5324 18.592,4.3243 39.9612,6.0561 l 11.25,0.9117 0,11.875 0,11.875 -129.4318,0.3183 c -99.6339,0.245 -129.7784,-0.028 -130.9375,-1.1875 z"
       id="path4207"
       inkscape:export-xdpi="10"
       inkscape:export-ydpi="10"
       inkscape:connector-curvature="0" />
    <path
       style="fill:#000000"
       d="m 4229.4254,-789.34241 c -92.2776,-12.6038 -167.994,-82.7483 -186.8693,-173.1177 -3.6017,-17.2444 -4.5166,-26.739 -4.5164,-46.87499 2e-4,-20.1645 0.9211,-29.701 4.5264,-46.875 9.5228,-45.3612 34.993,-88.5886 70.4758,-119.6098 66.7869,-58.389 161.3957,-71.4563 241.4035,-33.3422 59.9805,28.5735 103.7982,82.0247 119.7984,146.1362 4.9362,19.7796 5.827,28.2126 5.8033,54.9408 -0.02,22.27389 -0.4543,28.39589 -2.8702,40.41719 -19.174,95.4107 -94.0332,165.778 -189.702,178.3192 -17.1581,2.2492 -41.6089,2.2519 -58.0495,0.01 z"
       id="path4205"
       inkscape:export-xdpi="10"
       inkscape:export-ydpi="10"
       inkscape:connector-curvature="0" />
    <path
       style="fill:#ffff01;fill-opacity:1"
       d="m 4297.5106,-204.30602 c 89.2541,-16.5576 156.3935,-82.201 175.8944,-171.975 2.5205,-11.6035 2.8481,-16.5303 2.8261,-42.49999 -0.021,-25.5972 -0.3843,-31.063 -2.8192,-42.5 -12.6819,-59.5679 -44.2251,-106.6891 -93.3415,-139.4397 -58.0045,-38.6771 -131.3301,-47.2275 -197.0874,-22.982 -14.8045,5.4586 -37.211,17.3783 -51.0376,27.1508 -15.1578,10.7133 -39.4469,34.9776 -50.3225,50.2709 -10.2237,14.3768 -24.5346,42.62 -29.6645,58.5445 -24.8673,77.1934 -5.8884,161.59079 49.2528,219.02399 34.9301,36.382 79.9148,59.2234 130.1165,66.0678 13.1288,1.7899 52.9697,0.7899 66.1829,-1.6613 z"
       id="path4201"
       inkscape:connector-curvature="0"
       inkscape:export-xdpi="10"
       inkscape:export-ydpi="10" />
    <path
       id="path4305"
       d="m 3655.3339,-789.34241 c -92.2776,-12.6038 -167.994,-82.7483 -186.8693,-173.1177 -3.6017,-17.2444 -4.5166,-26.739 -4.5164,-46.87499 2e-4,-20.1645 0.9211,-29.701 4.5264,-46.875 9.5228,-45.3612 34.993,-88.5886 70.4758,-119.6098 66.7869,-58.389 161.3957,-71.4563 241.4035,-33.3422 59.9805,28.5735 103.7982,82.0247 119.7984,146.1362 4.9362,19.7796 5.827,28.2126 5.8033,54.9408 -0.02,22.27389 -0.4543,28.39589 -2.8702,40.41719 -19.174,95.4107 -94.0332,165.778 -189.702,178.3192 -17.1581,2.2492 -41.6089,2.2519 -58.0495,0.01 z"
       style="fill:#01ffff;fill-opacity:1"
       inkscape:connector-curvature="0"
       inkscape:export-xdpi="10"
       inkscape:export-ydpi="10" />
  </g>
</svg>
