<?xml version="1.0" encoding="UTF-8" standalone="no"?>
<svg
   xmlns:dc="http://purl.org/dc/elements/1.1/"
   xmlns:cc="http://creativecommons.org/ns#"
   xmlns:rdf="http://www.w3.org/1999/02/22-rdf-syntax-ns#"
   xmlns:svg="http://www.w3.org/2000/svg"
   xmlns="http://www.w3.org/2000/svg"
   version="1.1"
   id="svg2"
   viewBox="0 0 48 48"
   height="48"
   width="48">
  <defs
     id="defs4" />
  <metadata
     id="metadata7">
    <rdf:RDF>
      <cc:Work
         rdf:about="">
        <dc:format>image/svg+xml</dc:format>
        <dc:type
           rdf:resource="http://purl.org/dc/dcmitype/StillImage" />
        <dc:title></dc:title>
      </cc:Work>
    </rdf:RDF>
  </metadata>
  <g
     transform="translate(0,-1004.3622)"
     id="layer1">
    <g
       transform="matrix(0.11025427,0,0,0.11025427,-15.658371,994.75189)"
       id="g4296">
      <g
         transform="matrix(9.0699435,0,0,9.0699435,-2960.9951,-1416.9204)"
         id="g4964" />
      <g
         transform="matrix(9.0699435,0,0,9.0699435,-2960.9951,-1416.9204)"
         id="g4966" />
      <g
         transform="matrix(9.0699435,0,0,9.0699435,-2960.9951,-1416.9204)"
         id="g4968" />
      <g
         transform="matrix(9.0699435,0,0,9.0699435,-2960.9951,-1416.9204)"
         id="g4970" />
      <g
         transform="matrix(9.0699435,0,0,9.0699435,-2960.9951,-1416.9204)"
         id="g4972" />
      <g
         transform="matrix(9.0699435,0,0,9.0699435,-2960.9951,-1416.9204)"
         id="g4974" />
      <g
         transform="matrix(9.0699435,0,0,9.0699435,-2960.9951,-1416.9204)"
         id="g4976" />
      <g
         transform="matrix(9.0699435,0,0,9.0699435,-2960.9951,-1416.9204)"
         id="g4978" />
      <g
         transform="matrix(9.0699435,0,0,9.0699435,-2960.9951,-1416.9204)"
         id="g4980" />
      <g
         transform="matrix(9.0699435,0,0,9.0699435,-2960.9951,-1416.9204)"
         id="g4982" />
      <g
         transform="matrix(9.0699435,0,0,9.0699435,-2960.9951,-1416.9204)"
         id="g4984" />
      <g
         transform="matrix(9.0699435,0,0,9.0699435,-2960.9951,-1416.9204)"
         id="g4986" />
      <g
         transform="matrix(9.0699435,0,0,9.0699435,-2960.9951,-1416.9204)"
         id="g4988" />
      <g
         transform="matrix(9.0699435,0,0,9.0699435,-2960.9951,-1416.9204)"
         id="g4990" />
      <g
         transform="matrix(9.0699435,0,0,9.0699435,-2960.9951,-1416.9204)"
         id="g4992" />
      <g
         style="stroke:none;fill:#ffffff;fill-opacity:1"
         transform="matrix(0.68372894,0,0,0.68372894,235.13611,171.54736)"
         id="g7434">
        <g
           style="stroke:none;fill:#ffffff;fill-opacity:1"
           id="g7392">
          <path
             style="fill:#ffffff;stroke:none;fill-opacity:1"
             d="m 25.556,24.386 0,319.404 c 0,13.469 10.917,24.386 24.386,24.386 l 37.928,0 L 87.87,0 49.942,0 C 36.473,0 25.556,10.917 25.556,24.386 Z"
             id="path7394" />
          <path
             style="fill:#ffffff;stroke:none;fill-opacity:1"
             d="m 112.378,0 0,368.176 211.392,0 c 10.421,0 18.85,-8.454 18.85,-18.801 l 0,-330.557 c 0,-10.372 -8.429,-18.81 -18.85,-18.81 l -25.207,0 0,128.114 c 0,13.469 -7.966,16.924 -17.802,7.722 L 251.596,108.548 220.39,136.3 c -10.063,8.958 -18.224,5.292 -18.224,-8.177 L 202.166,0 112.378,0 Z m 178.714,211.408 0,41.992 -123.286,0 0,-41.992 123.286,0 z"
             id="path7396" />
        </g>
        <g
           style="stroke:none;fill:#ffffff;fill-opacity:1"
           id="g7398" />
        <g
           style="stroke:none;fill:#ffffff;fill-opacity:1"
           id="g7400" />
        <g
           style="stroke:none;fill:#ffffff;fill-opacity:1"
           id="g7402" />
        <g
           style="stroke:none;fill:#ffffff;fill-opacity:1"
           id="g7404" />
        <g
           style="stroke:none;fill:#ffffff;fill-opacity:1"
           id="g7406" />
        <g
           style="stroke:none;fill:#ffffff;fill-opacity:1"
           id="g7408" />
        <g
           style="stroke:none;fill:#ffffff;fill-opacity:1"
           id="g7410" />
        <g
           style="stroke:none;fill:#ffffff;fill-opacity:1"
           id="g7412" />
        <g
           style="stroke:none;fill:#ffffff;fill-opacity:1"
           id="g7414" />
        <g
           style="stroke:none;fill:#ffffff;fill-opacity:1"
           id="g7416" />
        <g
           style="stroke:none;fill:#ffffff;fill-opacity:1"
           id="g7418" />
        <g
           style="stroke:none;fill:#ffffff;fill-opacity:1"
           id="g7420" />
        <g
           style="stroke:none;fill:#ffffff;fill-opacity:1"
           id="g7422" />
        <g
           style="stroke:none;fill:#ffffff;fill-opacity:1"
           id="g7424" />
        <g
           style="stroke:none;fill:#ffffff;fill-opacity:1"
           id="g7426" />
      </g>
    </g>
  </g>
</svg>
