<?xml version="1.0" encoding="UTF-8" standalone="no"?>
<svg
   xmlns:dc="http://purl.org/dc/elements/1.1/"
   xmlns:cc="http://creativecommons.org/ns#"
   xmlns:rdf="http://www.w3.org/1999/02/22-rdf-syntax-ns#"
   xmlns:svg="http://www.w3.org/2000/svg"
   xmlns="http://www.w3.org/2000/svg"
   version="1.1"
   id="svg2"
   viewBox="0 0 48 48"
   height="48"
   width="48">
  <defs
     id="defs4" />
  <metadata
     id="metadata7">
    <rdf:RDF>
      <cc:Work
         rdf:about="">
        <dc:format>image/svg+xml</dc:format>
        <dc:type
           rdf:resource="http://purl.org/dc/dcmitype/StillImage" />
        <dc:title></dc:title>
      </cc:Work>
    </rdf:RDF>
  </metadata>
  <g
     transform="translate(0,-1004.3622)"
     id="layer1">
    <g
       transform="matrix(0.11025427,0,0,0.11025427,-15.658371,994.75189)"
       id="g4296">
      <g
         transform="matrix(9.0699435,0,0,9.0699435,-2960.9951,-1416.9204)"
         id="g4964" />
      <g
         transform="matrix(9.0699435,0,0,9.0699435,-2960.9951,-1416.9204)"
         id="g4966" />
      <g
         transform="matrix(9.0699435,0,0,9.0699435,-2960.9951,-1416.9204)"
         id="g4968" />
      <g
         transform="matrix(9.0699435,0,0,9.0699435,-2960.9951,-1416.9204)"
         id="g4970" />
      <g
         transform="matrix(9.0699435,0,0,9.0699435,-2960.9951,-1416.9204)"
         id="g4972" />
      <g
         transform="matrix(9.0699435,0,0,9.0699435,-2960.9951,-1416.9204)"
         id="g4974" />
      <g
         transform="matrix(9.0699435,0,0,9.0699435,-2960.9951,-1416.9204)"
         id="g4976" />
      <g
         transform="matrix(9.0699435,0,0,9.0699435,-2960.9951,-1416.9204)"
         id="g4978" />
      <g
         transform="matrix(9.0699435,0,0,9.0699435,-2960.9951,-1416.9204)"
         id="g4980" />
      <g
         transform="matrix(9.0699435,0,0,9.0699435,-2960.9951,-1416.9204)"
         id="g4982" />
      <g
         transform="matrix(9.0699435,0,0,9.0699435,-2960.9951,-1416.9204)"
         id="g4984" />
      <g
         transform="matrix(9.0699435,0,0,9.0699435,-2960.9951,-1416.9204)"
         id="g4986" />
      <g
         transform="matrix(9.0699435,0,0,9.0699435,-2960.9951,-1416.9204)"
         id="g4988" />
      <g
         transform="matrix(9.0699435,0,0,9.0699435,-2960.9951,-1416.9204)"
         id="g4990" />
      <g
         transform="matrix(9.0699435,0,0,9.0699435,-2960.9951,-1416.9204)"
         id="g4992" />
      <g
         style="fill:#ffffff;fill-opacity:1;stroke:none"
         transform="matrix(0.98925819,0,0,0.98925819,201.41908,143.18679)"
         id="g5842">
        <g
           style="fill:#ffffff;fill-opacity:1;stroke:none"
           id="g5798">
          <g
             style="fill:#ffffff;fill-opacity:1;stroke:none"
             id="g5800">
            <path
               style="fill:#ffffff;fill-opacity:1;stroke:none"
               d="m 297.401,47.78 -24.484,0 0,-7.116 c 0,-9.255 -7.536,-16.783 -16.786,-16.783 l -186.406,0 c -9.257,0 -16.785,7.528 -16.785,16.783 l 0,7.116 -24.482,0 C 12.738,47.78 0,60.526 0,76.238 l 0,39.844 c 0,12.646 8.306,23.24 19.72,26.95 l 0,115.691 -10.196,30.844 c -1.64,4.952 1.049,10.294 6.006,11.934 0.983,0.333 1.98,0.48 2.963,0.48 3.963,0 7.663,-2.516 8.97,-6.486 l 10.713,-32.416 0.442,0 0,-1.334 10.198,-30.845 c 1.64,-4.951 -1.049,-10.299 -6.006,-11.934 -1.397,-0.464 -2.819,-0.549 -4.184,-0.369 l 0,-74.055 22.857,0 0,111.412 202.9,0 0,-111.411 17.165,0 0,69.372 c -2.404,-1.856 -5.663,-2.531 -8.754,-1.503 -4.957,1.635 -7.646,6.981 -6.001,11.934 l 21.347,64.595 c 1.309,3.971 5,6.486 8.965,6.486 0.981,0 1.983,-0.153 2.964,-0.48 4.957,-1.635 7.646,-6.981 6.007,-11.938 l -6.587,-19.929 0.96,0 0,-118.843 c 14.27,-1.54 25.413,-13.479 25.413,-28.155 l 0,-39.844 C 325.856,60.521 313.116,47.78 297.401,47.78 Z M 63.74,40.664 c 0,-3.299 2.685,-5.983 5.985,-5.983 l 186.405,0 c 3.302,0 5.985,2.684 5.985,5.983 l 0,7.116 -198.375,0 0,-7.116 z m 189.839,103.879 0,100.611 -181.301,0 0,-100.611 0,-20.633 c 0,-8.126 4.084,-19.498 8.915,-24.835 l 8.707,-9.605 146.045,0 8.712,9.605 c 4.841,5.337 8.917,16.709 8.917,24.835 l 0,20.633 0.005,0 z"
               id="path5802" />
            <path
               style="fill:#ffffff;fill-opacity:1;stroke:none"
               d="m 232.654,106.416 -139.451,0 c -2.985,0 -5.4,2.418 -5.4,5.399 0,2.979 2.415,5.4 5.4,5.4 l 139.451,0 c 2.984,0 5.399,-2.421 5.399,-5.4 0,-2.981 -2.415,-5.399 -5.399,-5.399 z"
               id="path5804" />
          </g>
        </g>
        <g
           style="fill:#ffffff;fill-opacity:1;stroke:none"
           id="g5806" />
        <g
           style="fill:#ffffff;fill-opacity:1;stroke:none"
           id="g5808" />
        <g
           style="fill:#ffffff;fill-opacity:1;stroke:none"
           id="g5810" />
        <g
           style="fill:#ffffff;fill-opacity:1;stroke:none"
           id="g5812" />
        <g
           style="fill:#ffffff;fill-opacity:1;stroke:none"
           id="g5814" />
        <g
           style="fill:#ffffff;fill-opacity:1;stroke:none"
           id="g5816" />
        <g
           style="fill:#ffffff;fill-opacity:1;stroke:none"
           id="g5818" />
        <g
           style="fill:#ffffff;fill-opacity:1;stroke:none"
           id="g5820" />
        <g
           style="fill:#ffffff;fill-opacity:1;stroke:none"
           id="g5822" />
        <g
           style="fill:#ffffff;fill-opacity:1;stroke:none"
           id="g5824" />
        <g
           style="fill:#ffffff;fill-opacity:1;stroke:none"
           id="g5826" />
        <g
           style="fill:#ffffff;fill-opacity:1;stroke:none"
           id="g5828" />
        <g
           style="fill:#ffffff;fill-opacity:1;stroke:none"
           id="g5830" />
        <g
           style="fill:#ffffff;fill-opacity:1;stroke:none"
           id="g5832" />
        <g
           style="fill:#ffffff;fill-opacity:1;stroke:none"
           id="g5834" />
      </g>
    </g>
  </g>
</svg>
