<?xml version="1.0" encoding="iso-8859-1"?>
<!-- Generator: Adobe Illustrator 16.0.0, SVG Export Plug-In . SVG Version: 6.00 Build 0)  -->
<!DOCTYPE svg PUBLIC "-//W3C//DTD SVG 1.1//EN" "http://www.w3.org/Graphics/SVG/1.1/DTD/svg11.dtd">
<svg version="1.1" id="Capa_1" xmlns="http://www.w3.org/2000/svg" xmlns:xlink="http://www.w3.org/1999/xlink" x="0px" y="0px"
	 width="377.154px" height="377.155px" viewBox="0 0 377.154 377.155" style="enable-background:new 0 0 377.154 377.155;"
	 xml:space="preserve">
<g>
	<g>
		<path d="M292.32,377.155c7.466,0,13.513-6.046,13.513-13.512v-9.127h9.341v-13.189h-9.402H278.87H174.833h-26.902h-12.038v13.189
			h11.977v9.127c0,7.466,6.05,13.512,13.512,13.512c7.462,0,13.512-6.046,13.512-13.512v-9.127h103.921v9.127
			C278.809,371.109,284.861,377.155,292.32,377.155z"/>
		<path d="M315.174,96.248c0-5.526-1.925-10.559-5.042-14.629c-0.457-1.821-1.443-3.522-2.978-4.837L220.03,2.25
			c-3.921-3.355-9.828-2.911-13.189,1.029c-3.36,3.921-2.898,9.828,1.029,13.183l65.008,55.612h-18.127v26.073H135.894v49.935
			h179.273V96.248H315.174z M152.011,124.681c-3.474,0-6.293-2.819-6.293-6.293c0-3.471,2.819-6.291,6.293-6.291
			c3.474,0,6.291,2.819,6.291,6.291C158.302,121.862,155.485,124.681,152.011,124.681z M173.162,124.681
			c-3.474,0-6.293-2.819-6.293-6.293c0-3.471,2.819-6.291,6.293-6.291c3.471,0,6.29,2.819,6.29,6.291
			C179.452,121.862,176.633,124.681,173.162,124.681z"/>
		<path d="M315.174,160.19h-179.28v22.959c-20.926-10.564-40.636-23.209-60.204-36.228c-10.075-6.704-19.427,9.502-9.438,16.148
			c22.484,14.958,45.148,29.438,69.642,40.794v28.029h179.273V160.19H315.174z"/>
		<polygon points="315.174,292.851 135.894,292.851 135.894,328.862 158.104,328.862 164.662,328.862 289.045,328.862 
			295.603,328.862 315.174,328.862 		"/>
		<path d="M315.174,244.363h-179.28v1.139c-0.749-0.384-1.51-0.749-2.259-1.139c-5.243-2.691-10.406-5.522-15.512-8.445
			c-14.471-8.294-28.488-17.372-42.432-26.652c-10.075-6.704-19.427,9.505-9.438,16.148c22.484,14.961,45.148,29.441,69.642,40.798
			v14.169h179.273v-36.018H315.174z"/>
	</g>
</g>
<g>
</g>
<g>
</g>
<g>
</g>
<g>
</g>
<g>
</g>
<g>
</g>
<g>
</g>
<g>
</g>
<g>
</g>
<g>
</g>
<g>
</g>
<g>
</g>
<g>
</g>
<g>
</g>
<g>
</g>
</svg>
