<?xml version="1.0" encoding="UTF-8" standalone="no"?>
<svg
   xmlns:dc="http://purl.org/dc/elements/1.1/"
   xmlns:cc="http://creativecommons.org/ns#"
   xmlns:rdf="http://www.w3.org/1999/02/22-rdf-syntax-ns#"
   xmlns:svg="http://www.w3.org/2000/svg"
   xmlns="http://www.w3.org/2000/svg"
   version="1.1"
   id="svg2"
   viewBox="0 0 48 48"
   height="48"
   width="48">
  <defs
     id="defs4" />
  <metadata
     id="metadata7">
    <rdf:RDF>
      <cc:Work
         rdf:about="">
        <dc:format>image/svg+xml</dc:format>
        <dc:type
           rdf:resource="http://purl.org/dc/dcmitype/StillImage" />
        <dc:title></dc:title>
      </cc:Work>
    </rdf:RDF>
  </metadata>
  <g
     transform="translate(0,-1004.3622)"
     id="layer1">
    <g
       transform="matrix(0.11025427,0,0,0.11025427,-15.658371,994.75189)"
       id="g4296">
      <g
         transform="matrix(9.0699435,0,0,9.0699435,-2960.9951,-1416.9204)"
         id="g4964" />
      <g
         transform="matrix(9.0699435,0,0,9.0699435,-2960.9951,-1416.9204)"
         id="g4966" />
      <g
         transform="matrix(9.0699435,0,0,9.0699435,-2960.9951,-1416.9204)"
         id="g4968" />
      <g
         transform="matrix(9.0699435,0,0,9.0699435,-2960.9951,-1416.9204)"
         id="g4970" />
      <g
         transform="matrix(9.0699435,0,0,9.0699435,-2960.9951,-1416.9204)"
         id="g4972" />
      <g
         transform="matrix(9.0699435,0,0,9.0699435,-2960.9951,-1416.9204)"
         id="g4974" />
      <g
         transform="matrix(9.0699435,0,0,9.0699435,-2960.9951,-1416.9204)"
         id="g4976" />
      <g
         transform="matrix(9.0699435,0,0,9.0699435,-2960.9951,-1416.9204)"
         id="g4978" />
      <g
         transform="matrix(9.0699435,0,0,9.0699435,-2960.9951,-1416.9204)"
         id="g4980" />
      <g
         transform="matrix(9.0699435,0,0,9.0699435,-2960.9951,-1416.9204)"
         id="g4982" />
      <g
         transform="matrix(9.0699435,0,0,9.0699435,-2960.9951,-1416.9204)"
         id="g4984" />
      <g
         transform="matrix(9.0699435,0,0,9.0699435,-2960.9951,-1416.9204)"
         id="g4986" />
      <g
         transform="matrix(9.0699435,0,0,9.0699435,-2960.9951,-1416.9204)"
         id="g4988" />
      <g
         transform="matrix(9.0699435,0,0,9.0699435,-2960.9951,-1416.9204)"
         id="g4990" />
      <g
         transform="matrix(9.0699435,0,0,9.0699435,-2960.9951,-1416.9204)"
         id="g4992" />
      <g
         style="stroke:none;fill:#ffffff;fill-opacity:1"
         transform="matrix(0.76019302,0,0,0.76019302,213.71989,144.05674)"
         id="g6668">
        <g
           style="stroke:none;fill:#ffffff;fill-opacity:1"
           id="g6622">
          <g
             style="stroke:none;fill:#ffffff;fill-opacity:1"
             id="g6624">
            <g
               style="stroke:none;fill:#ffffff;fill-opacity:1"
               id="g6626">
              <path
                 style="stroke:none;fill:#ffffff;fill-opacity:1"
                 d="m 281.547,143.478 c -0.456,-2.581 -2.917,-4.305 -5.501,-3.851 l -17.05,3.005 c -2.047,-4.803 -4.662,-9.302 -7.764,-13.418 l 11.139,-13.272 c 0.809,-0.965 1.201,-2.211 1.094,-3.466 -0.111,-1.256 -0.715,-2.414 -1.68,-3.225 L 246.872,96.737 c -0.964,-0.809 -2.213,-1.202 -3.468,-1.093 -1.254,0.109 -2.413,0.714 -3.224,1.678 l -11.13,13.265 c -4.566,-2.326 -9.45,-4.123 -14.57,-5.306 l 0,-17.312 c 0,-2.624 -2.125,-4.751 -4.748,-4.751 l -19.466,0 c -2.622,0 -4.748,2.127 -4.748,4.751 l 0,17.312 c -5.122,1.183 -10.004,2.979 -14.572,5.306 L 159.818,97.322 c -1.688,-2.008 -4.682,-2.271 -6.69,-0.584 l -14.913,12.513 c -0.966,0.811 -1.568,1.969 -1.68,3.225 -0.107,1.255 0.284,2.501 1.094,3.466 l 11.138,13.272 c -3.102,4.116 -5.716,8.617 -7.763,13.418 l -17.05,-3.005 c -2.579,-0.454 -5.045,1.27 -5.501,3.851 l -3.381,19.173 c -0.218,1.24 0.064,2.519 0.788,3.549 0.722,1.032 1.823,1.733 3.064,1.951 l 17.063,3.011 c 0.277,5.284 1.197,10.398 2.68,15.268 l -14.994,8.657 c -1.092,0.631 -1.886,1.665 -2.213,2.882 -0.325,1.219 -0.154,2.514 0.475,3.604 l 9.733,16.86 c 0.63,1.092 1.667,1.886 2.885,2.212 0.403,0.109 0.816,0.163 1.229,0.163 0.826,0 1.645,-0.216 2.373,-0.638 l 15.009,-8.664 c 3.533,3.776 7.518,7.127 11.868,9.967 l -5.926,16.277 c -0.43,1.184 -0.375,2.489 0.158,3.631 0.533,1.142 1.496,2.022 2.68,2.455 l 18.294,6.658 c 0.524,0.19 1.075,0.286 1.625,0.286 0.686,0 1.371,-0.149 2.005,-0.444 1.142,-0.532 2.025,-1.496 2.456,-2.681 l 5.925,-16.278 c 2.54,0.307 5.127,0.469 7.75,0.469 2.623,0 5.21,-0.162 7.75,-0.469 l 5.926,16.278 c 0.432,1.185 1.313,2.146 2.455,2.681 0.636,0.295 1.318,0.444 2.007,0.444 0.549,0 1.101,-0.097 1.623,-0.286 l 18.295,-6.658 c 1.185,-0.433 2.146,-1.313 2.681,-2.457 0.532,-1.142 0.588,-2.445 0.157,-3.629 l -5.927,-16.277 c 4.352,-2.84 8.335,-6.188 11.868,-9.967 l 15.009,8.664 c 0.729,0.422 1.547,0.637 2.373,0.637 0.412,0 0.826,-0.053 1.229,-0.162 1.218,-0.326 2.253,-1.12 2.884,-2.212 l 9.732,-16.86 c 0.631,-1.089 0.802,-2.385 0.477,-3.604 -0.327,-1.217 -1.123,-2.253 -2.213,-2.882 l -14.994,-8.657 c 1.48,-4.87 2.402,-9.983 2.68,-15.268 l 17.063,-3.011 c 1.241,-0.218 2.341,-0.919 3.062,-1.951 0.726,-1.031 1.006,-2.309 0.788,-3.549 l -3.377,-19.173 z M 200,193.117 c -14.424,0 -26.117,-11.692 -26.117,-26.116 0,-14.424 11.693,-26.116 26.117,-26.116 14.424,0 26.117,11.692 26.117,26.116 0,14.424 -11.693,26.116 -26.117,26.116 z"
                 id="path6628" />
              <path
                 style="stroke:none;fill:#ffffff;fill-opacity:1"
                 d="m 366.684,24.971 -333.368,0 C 14.945,24.971 0,39.917 0,58.288 L 0,275.56 c 0,18.371 14.945,33.317 33.316,33.317 l 107.412,0 -20.387,44.955 c -2.105,4.643 -1.709,10.037 1.053,14.321 2.762,4.285 7.51,6.873 12.607,6.873 l 131.996,0 c 0,0 0.014,0 0.02,0 8.285,0 15,-6.715 15,-15 0,-2.493 -0.605,-4.848 -1.686,-6.916 l -20.062,-44.233 107.412,0 c 18.371,0 33.316,-14.946 33.316,-33.317 l 0,-217.272 C 400,39.917 385.055,24.971 366.684,24.971 Z M 370,275.561 c 0,1.829 -1.488,3.316 -3.316,3.316 l -333.368,0 C 31.488,278.877 30,277.39 30,275.561 L 30,58.288 c 0,-1.829 1.488,-3.317 3.316,-3.317 l 333.367,0 c 1.828,0 3.316,1.488 3.316,3.317 l 10e-4,217.273 0,0 z"
                 id="path6630" />
            </g>
          </g>
        </g>
        <g
           style="stroke:none;fill:#ffffff;fill-opacity:1"
           id="g6632" />
        <g
           style="stroke:none;fill:#ffffff;fill-opacity:1"
           id="g6634" />
        <g
           style="stroke:none;fill:#ffffff;fill-opacity:1"
           id="g6636" />
        <g
           style="stroke:none;fill:#ffffff;fill-opacity:1"
           id="g6638" />
        <g
           style="stroke:none;fill:#ffffff;fill-opacity:1"
           id="g6640" />
        <g
           style="stroke:none;fill:#ffffff;fill-opacity:1"
           id="g6642" />
        <g
           style="stroke:none;fill:#ffffff;fill-opacity:1"
           id="g6644" />
        <g
           style="stroke:none;fill:#ffffff;fill-opacity:1"
           id="g6646" />
        <g
           style="stroke:none;fill:#ffffff;fill-opacity:1"
           id="g6648" />
        <g
           style="stroke:none;fill:#ffffff;fill-opacity:1"
           id="g6650" />
        <g
           style="stroke:none;fill:#ffffff;fill-opacity:1"
           id="g6652" />
        <g
           style="stroke:none;fill:#ffffff;fill-opacity:1"
           id="g6654" />
        <g
           style="stroke:none;fill:#ffffff;fill-opacity:1"
           id="g6656" />
        <g
           style="stroke:none;fill:#ffffff;fill-opacity:1"
           id="g6658" />
        <g
           style="stroke:none;fill:#ffffff;fill-opacity:1"
           id="g6660" />
      </g>
    </g>
  </g>
</svg>
