<?xml version="1.0" encoding="UTF-8" standalone="no"?>
<svg
   xmlns:dc="http://purl.org/dc/elements/1.1/"
   xmlns:cc="http://creativecommons.org/ns#"
   xmlns:rdf="http://www.w3.org/1999/02/22-rdf-syntax-ns#"
   xmlns:svg="http://www.w3.org/2000/svg"
   xmlns="http://www.w3.org/2000/svg"
   version="1.1"
   id="svg2"
   viewBox="0 0 48 48"
   height="48"
   width="48">
  <defs
     id="defs4" />
  <metadata
     id="metadata7">
    <rdf:RDF>
      <cc:Work
         rdf:about="">
        <dc:format>image/svg+xml</dc:format>
        <dc:type
           rdf:resource="http://purl.org/dc/dcmitype/StillImage" />
        <dc:title></dc:title>
      </cc:Work>
    </rdf:RDF>
  </metadata>
  <g
     transform="translate(0,-1004.3622)"
     id="layer1">
    <g
       transform="matrix(0.11025427,0,0,0.11025427,-15.658371,994.75189)"
       id="g4296">
      <g
         transform="matrix(9.0699435,0,0,9.0699435,-2960.9951,-1416.9204)"
         id="g4964" />
      <g
         transform="matrix(9.0699435,0,0,9.0699435,-2960.9951,-1416.9204)"
         id="g4966" />
      <g
         transform="matrix(9.0699435,0,0,9.0699435,-2960.9951,-1416.9204)"
         id="g4968" />
      <g
         transform="matrix(9.0699435,0,0,9.0699435,-2960.9951,-1416.9204)"
         id="g4970" />
      <g
         transform="matrix(9.0699435,0,0,9.0699435,-2960.9951,-1416.9204)"
         id="g4972" />
      <g
         transform="matrix(9.0699435,0,0,9.0699435,-2960.9951,-1416.9204)"
         id="g4974" />
      <g
         transform="matrix(9.0699435,0,0,9.0699435,-2960.9951,-1416.9204)"
         id="g4976" />
      <g
         transform="matrix(9.0699435,0,0,9.0699435,-2960.9951,-1416.9204)"
         id="g4978" />
      <g
         transform="matrix(9.0699435,0,0,9.0699435,-2960.9951,-1416.9204)"
         id="g4980" />
      <g
         transform="matrix(9.0699435,0,0,9.0699435,-2960.9951,-1416.9204)"
         id="g4982" />
      <g
         transform="matrix(9.0699435,0,0,9.0699435,-2960.9951,-1416.9204)"
         id="g4984" />
      <g
         transform="matrix(9.0699435,0,0,9.0699435,-2960.9951,-1416.9204)"
         id="g4986" />
      <g
         transform="matrix(9.0699435,0,0,9.0699435,-2960.9951,-1416.9204)"
         id="g4988" />
      <g
         transform="matrix(9.0699435,0,0,9.0699435,-2960.9951,-1416.9204)"
         id="g4990" />
      <g
         transform="matrix(9.0699435,0,0,9.0699435,-2960.9951,-1416.9204)"
         id="g4992" />
      <g
         style="stroke:none;fill:#eeeeee;fill-opacity:1"
         transform="matrix(0.46280829,0,0,0.46280829,253.88444,189.43401)"
         id="g6920">
        <g
           style="stroke:none;fill:#eeeeee;fill-opacity:1"
           id="g6870">
          <g
             style="stroke:none;fill:#eeeeee;fill-opacity:1"
             id="g6872">
            <g
               style="stroke:none;fill:#eeeeee;fill-opacity:1"
               id="g6874">
              <path
                 style="stroke:none;fill:#eeeeee;fill-opacity:1"
                 d="m 153.029,90.223 182.404,0 c 5.427,0 9.873,-4.43 9.873,-9.869 l 0,-80.354 -202.169,0 0,80.354 c 0,5.439 4.434,9.869 9.892,9.869 z"
                 id="path6876" />
              <path
                 style="stroke:none;fill:#eeeeee;fill-opacity:1"
                 d="M 480.817,122.864 377.88,19.494 l 0,60.859 c 0,23.404 -19.043,42.447 -42.447,42.447 l -182.404,0 c -23.409,0 -42.447,-19.043 -42.447,-42.447 L 110.582,0 44.823,0 C 20.068,0 0.002,20.07 0.002,44.808 l 0,398.831 c 0,24.736 20.066,44.808 44.821,44.808 l 398.813,0 c 24.74,0 44.808,-20.068 44.808,-44.808 l 0,-302.314 c 0,-6.933 -2.746,-13.567 -7.627,-18.461 z m -68.356,262.802 c 0,14.434 -11.703,26.154 -26.168,26.154 l -284.156,0 c -14.451,0 -26.153,-11.722 -26.153,-26.154 l 0,-136.363 c 0,-14.43 11.702,-26.148 26.153,-26.148 l 284.156,0 c 14.465,0 26.168,11.72 26.168,26.148 l 0,136.363 z"
                 id="path6878" />
              <path
                 style="stroke:none;fill:#eeeeee;fill-opacity:1"
                 d="m 356.497,265.131 -224.548,0 c -9.008,0 -16.294,7.273 -16.294,16.28 0,9.007 7.286,16.28 16.294,16.28 l 224.549,0 c 8.988,0 16.277,-7.273 16.277,-16.28 0,-9.007 -7.288,-16.28 -16.278,-16.28 z"
                 id="path6880" />
              <path
                 style="stroke:none;fill:#eeeeee;fill-opacity:1"
                 d="m 323.936,330.264 -159.428,0 c -8.994,0 -16.28,7.273 -16.28,16.28 0,8.989 7.286,16.28 16.28,16.28 l 159.427,0 c 8.994,0 16.281,-7.291 16.281,-16.28 10e-4,-9.007 -7.286,-16.28 -16.28,-16.28 z"
                 id="path6882" />
            </g>
          </g>
        </g>
        <g
           style="stroke:none;fill:#eeeeee;fill-opacity:1"
           id="g6884" />
        <g
           style="stroke:none;fill:#eeeeee;fill-opacity:1"
           id="g6886" />
        <g
           style="stroke:none;fill:#eeeeee;fill-opacity:1"
           id="g6888" />
        <g
           style="stroke:none;fill:#eeeeee;fill-opacity:1"
           id="g6890" />
        <g
           style="stroke:none;fill:#eeeeee;fill-opacity:1"
           id="g6892" />
        <g
           style="stroke:none;fill:#eeeeee;fill-opacity:1"
           id="g6894" />
        <g
           style="stroke:none;fill:#eeeeee;fill-opacity:1"
           id="g6896" />
        <g
           style="stroke:none;fill:#eeeeee;fill-opacity:1"
           id="g6898" />
        <g
           style="stroke:none;fill:#eeeeee;fill-opacity:1"
           id="g6900" />
        <g
           style="stroke:none;fill:#eeeeee;fill-opacity:1"
           id="g6902" />
        <g
           style="stroke:none;fill:#eeeeee;fill-opacity:1"
           id="g6904" />
        <g
           style="stroke:none;fill:#eeeeee;fill-opacity:1"
           id="g6906" />
        <g
           style="stroke:none;fill:#eeeeee;fill-opacity:1"
           id="g6908" />
        <g
           style="stroke:none;fill:#eeeeee;fill-opacity:1"
           id="g6910" />
        <g
           style="stroke:none;fill:#eeeeee;fill-opacity:1"
           id="g6912" />
      </g>
    </g>
  </g>
</svg>
