<?xml version="1.0" encoding="iso-8859-1"?>
<!-- Generator: Adobe Illustrator 16.0.0, SVG Export Plug-In . SVG Version: 6.00 Build 0)  -->
<!DOCTYPE svg PUBLIC "-//W3C//DTD SVG 1.1//EN" "http://www.w3.org/Graphics/SVG/1.1/DTD/svg11.dtd">
<svg version="1.1" id="Capa_1" xmlns="http://www.w3.org/2000/svg" xmlns:xlink="http://www.w3.org/1999/xlink" x="0px" y="0px"
	 width="350.215px" height="350.215px" viewBox="0 0 350.215 350.215" style="enable-background:new 0 0 350.215 350.215;"
	 xml:space="preserve">
<g>
	<path d="M347.406,168.706H2.803c-1.547,0-2.803,1.261-2.803,2.798v55.853c0,1.55,1.256,2.802,2.803,2.802h19.611v55.105H11.207
		C5.021,285.264,0,290.279,0,296.469v24.284c0,6.188,5.021,11.207,11.207,11.207H339c6.186,0,11.209-5.019,11.209-11.207v-24.284
		c0-6.189-5.023-11.205-11.209-11.205h-19.611v-55.105h28.017c1.544,0,2.804-1.252,2.804-2.802v-55.853
		C350.209,169.967,348.95,168.706,347.406,168.706z M133.079,187.433h18.212v18.212h-18.212V187.433z M82.65,187.433h18.21v18.212
		H82.65V187.433z M35.721,187.433h18.211v18.212H35.721V187.433z M344.999,147.704L16.362,33.216l5.211-14.961
		c0,0,156.115,27.385,328.642,114.499L344.999,147.704z"/>
</g>
<g>
</g>
<g>
</g>
<g>
</g>
<g>
</g>
<g>
</g>
<g>
</g>
<g>
</g>
<g>
</g>
<g>
</g>
<g>
</g>
<g>
</g>
<g>
</g>
<g>
</g>
<g>
</g>
<g>
</g>
</svg>
