<?xml version="1.0" encoding="UTF-8" standalone="no"?>
<!-- Created with Inkscape (http://www.inkscape.org/) -->

<svg
   xmlns:dc="http://purl.org/dc/elements/1.1/"
   xmlns:cc="http://creativecommons.org/ns#"
   xmlns:rdf="http://www.w3.org/1999/02/22-rdf-syntax-ns#"
   xmlns:svg="http://www.w3.org/2000/svg"
   xmlns="http://www.w3.org/2000/svg"
   xmlns:sodipodi="http://sodipodi.sourceforge.net/DTD/sodipodi-0.dtd"
   xmlns:inkscape="http://www.inkscape.org/namespaces/inkscape"
   width="48"
   height="48"
   viewBox="0 0 48 48"
   id="svg2"
   version="1.1"
   inkscape:version="0.91 r13725"
   sodipodi:docname="skladanie.svg">
  <defs
     id="defs4" />
  <sodipodi:namedview
     id="base"
     pagecolor="#ffffff"
     bordercolor="#666666"
     borderopacity="1.0"
     inkscape:pageopacity="0.0"
     inkscape:pageshadow="2"
     inkscape:zoom="7.9195959"
     inkscape:cx="23.714653"
     inkscape:cy="29.652817"
     inkscape:document-units="px"
     inkscape:current-layer="g4296"
     showgrid="false"
     inkscape:snap-intersection-paths="true"
     inkscape:object-nodes="true"
     inkscape:snap-smooth-nodes="true"
     inkscape:snap-midpoints="true"
     inkscape:snap-bbox="true"
     inkscape:bbox-nodes="true"
     inkscape:snap-bbox-edge-midpoints="true"
     inkscape:snap-bbox-midpoints="true"
     inkscape:snap-object-midpoints="true"
     inkscape:snap-center="true"
     inkscape:window-width="1280"
     inkscape:window-height="752"
     inkscape:window-x="0"
     inkscape:window-y="0"
     inkscape:window-maximized="1"
     units="px"
     inkscape:snap-global="false">
    <inkscape:grid
       type="xygrid"
       id="grid4289" />
  </sodipodi:namedview>
  <metadata
     id="metadata7">
    <rdf:RDF>
      <cc:Work
         rdf:about="">
        <dc:format>image/svg+xml</dc:format>
        <dc:type
           rdf:resource="http://purl.org/dc/dcmitype/StillImage" />
        <dc:title></dc:title>
      </cc:Work>
    </rdf:RDF>
  </metadata>
  <g
     inkscape:label="Layer 1"
     inkscape:groupmode="layer"
     id="layer1"
     transform="translate(0,-1004.3622)">
    <g
       id="g4296"
       inkscape:export-filename="/Users/Ola/Sites/reprocentrum/app/assets/images/top.png"
       inkscape:export-xdpi="90"
       inkscape:export-ydpi="90"
       transform="matrix(0.11025427,0,0,0.11025427,-15.658371,994.75189)">
      <g
         id="g4964"
         transform="matrix(9.0699435,0,0,9.0699435,-2960.9951,-1416.9204)" />
      <g
         id="g4966"
         transform="matrix(9.0699435,0,0,9.0699435,-2960.9951,-1416.9204)" />
      <g
         id="g4968"
         transform="matrix(9.0699435,0,0,9.0699435,-2960.9951,-1416.9204)" />
      <g
         id="g4970"
         transform="matrix(9.0699435,0,0,9.0699435,-2960.9951,-1416.9204)" />
      <g
         id="g4972"
         transform="matrix(9.0699435,0,0,9.0699435,-2960.9951,-1416.9204)" />
      <g
         id="g4974"
         transform="matrix(9.0699435,0,0,9.0699435,-2960.9951,-1416.9204)" />
      <g
         id="g4976"
         transform="matrix(9.0699435,0,0,9.0699435,-2960.9951,-1416.9204)" />
      <g
         id="g4978"
         transform="matrix(9.0699435,0,0,9.0699435,-2960.9951,-1416.9204)" />
      <g
         id="g4980"
         transform="matrix(9.0699435,0,0,9.0699435,-2960.9951,-1416.9204)" />
      <g
         id="g4982"
         transform="matrix(9.0699435,0,0,9.0699435,-2960.9951,-1416.9204)" />
      <g
         id="g4984"
         transform="matrix(9.0699435,0,0,9.0699435,-2960.9951,-1416.9204)" />
      <g
         id="g4986"
         transform="matrix(9.0699435,0,0,9.0699435,-2960.9951,-1416.9204)" />
      <g
         id="g4988"
         transform="matrix(9.0699435,0,0,9.0699435,-2960.9951,-1416.9204)" />
      <g
         id="g4990"
         transform="matrix(9.0699435,0,0,9.0699435,-2960.9951,-1416.9204)" />
      <g
         id="g4992"
         transform="matrix(9.0699435,0,0,9.0699435,-2960.9951,-1416.9204)" />
      <path
         inkscape:connector-curvature="0"
         d="m 396.08962,349.39482 c 0.23723,0.0594 0.47829,0.10338 0.72018,0.13068 0.80702,0.0908 1.62436,0.005 2.3993,-0.24747 l 121.95258,-39.86168 c 2.52614,-0.82131 4.13268,-3.28551 3.88045,-5.93347 -0.25942,-2.64032 -2.31635,-4.75113 -4.95193,-5.07824 -0.94441,-0.11785 -94.64369,-12.68249 -126.95189,-100.66626 -3.05178,-8.30343 -12.21203,-14.08843 -20.81064,-13.02107 l -99.44809,12.43649 c -4.80002,0.60141 -8.8573,3.16053 -11.12619,7.0168 -2.22011,3.76991 -2.49121,8.41369 -0.74932,12.74333 13.30487,33.12282 53.10941,112.32362 135.08556,132.48093 z M 271.51111,209.9193 c 0.47453,-0.80185 1.4836,-1.36199 2.77124,-1.51699 l 99.4511,-12.43511 c 0.49182,-0.0639 1.00931,-0.0649 1.53168,-0.006 3.11131,0.35 6.15008,2.74338 7.23256,5.68852 25.04587,68.19937 84.24433,94.13561 115.71446,103.34997 L 397.23222,338.00816 C 321.38609,318.47289 284.07176,243.97942 271.50211,212.69309 c -0.29154,-0.74973 -0.5328,-1.84328 0.009,-2.77379 z"
         id="path8288"
         style="stroke:none;fill:#eeeeee;fill-opacity:1" />
      <path
         inkscape:connector-curvature="0"
         d="m 509.48841,352.30769 -25.73921,-2.89549 -91.20324,31.57753 -3.77423,-0.40767 c -52.33648,-5.88751 -93.44875,-19.8884 -123.73976,-34.30959 l -73.71962,20.4898 -1.44382,2.5975 197.87657,22.25983 3.05276,-0.47151 119.98948,-37.3686 z"
         id="path8294"
         sodipodi:nodetypes="ccccccccccc"
         style="stroke:none;fill:#eeeeee;fill-opacity:1" />
      <path
         inkscape:connector-curvature="0"
         d="m 214.04688,302.19454 c 20.89548,16.74407 80.1011,56.87396 178.48165,67.36779 l 120.71613,-41.79468 c 0,0 -6.17841,-0.66122 -16.26194,-2.09649 l -102.92359,33.6452 -1.57597,-0.38846 c -55.1597,-13.56653 -91.11929,-53.76433 -112.66705,-88.21247 l -63.55132,20.57665 c -5.95159,1.93106 -7.10259,6.99112 -2.21791,10.90246 z"
         id="path8296"
         style="stroke:none;fill:#eeeeee;fill-opacity:1" />
    </g>
  </g>
</svg>
