<?xml version="1.0" encoding="UTF-8" standalone="no"?>
<svg
   xmlns:dc="http://purl.org/dc/elements/1.1/"
   xmlns:cc="http://creativecommons.org/ns#"
   xmlns:rdf="http://www.w3.org/1999/02/22-rdf-syntax-ns#"
   xmlns:svg="http://www.w3.org/2000/svg"
   xmlns="http://www.w3.org/2000/svg"
   version="1.1"
   id="svg2"
   viewBox="0 0 48 48"
   height="48"
   width="48">
  <defs
     id="defs4" />
  <metadata
     id="metadata7">
    <rdf:RDF>
      <cc:Work
         rdf:about="">
        <dc:format>image/svg+xml</dc:format>
        <dc:type
           rdf:resource="http://purl.org/dc/dcmitype/StillImage" />
        <dc:title></dc:title>
      </cc:Work>
    </rdf:RDF>
  </metadata>
  <g
     transform="translate(0,-1004.3622)"
     id="layer1">
    <g
       transform="matrix(0.11025427,0,0,0.11025427,-15.658371,994.75189)"
       id="g4296">
      <g
         id="g4341">
        <rect
           ry="62.857143"
           y="89.505066"
           x="145.71426"
           height="428.57144"
           width="428.57144"
           id="rect3408"
           style="opacity:1;fill:#ffffff;fill-opacity:1;fill-rule:nonzero;stroke:none;stroke-width:1;stroke-miterlimit:4;stroke-dasharray:none;stroke-dashoffset:0;stroke-opacity:1" />
        <g
           transform="translate(217.53599,147.32679)"
           id="g3390">
          <g
             id="g3392">
            <path
               style="fill:#e2e2e2"
               d="m 17.128,167.872 c 1.903,1.902 4.093,2.854 6.567,2.854 2.474,0 4.664,-0.952 6.567,-2.854 L 142.466,55.666 254.674,167.872 c 1.902,1.902 4.093,2.854 6.563,2.854 2.478,0 4.668,-0.952 6.57,-2.854 l 14.274,-14.277 c 1.902,-1.902 2.847,-4.093 2.847,-6.563 0,-2.475 -0.951,-4.665 -2.847,-6.567 L 149.028,7.419 c -1.901,-1.906 -4.088,-2.853 -6.562,-2.853 -2.474,0 -4.665,0.95 -6.567,2.853 L 2.856,140.464 C 0.95,142.367 0,144.554 0,147.034 c 0,2.468 0.953,4.658 2.856,6.561 l 14.272,14.277 z"
               id="path3394" />
            <path
               style="fill:#e2e2e2"
               d="m 149.028,117.055 c -1.901,-1.906 -4.088,-2.856 -6.562,-2.856 -2.474,0 -4.665,0.953 -6.567,2.856 L 2.856,250.1 C 0.95,252.003 0,254.192 0,256.67 c 0,2.472 0.953,4.661 2.856,6.564 l 14.272,14.276 c 1.903,1.903 4.093,2.848 6.567,2.848 2.474,0 4.664,-0.951 6.567,-2.848 L 142.466,165.301 254.674,277.51 c 1.902,1.903 4.093,2.852 6.563,2.852 2.478,0 4.668,-0.948 6.57,-2.852 l 14.274,-14.276 c 1.902,-1.903 2.847,-4.093 2.847,-6.564 0,-2.478 -0.951,-4.667 -2.847,-6.57 L 149.028,117.055 Z"
               id="path3396" />
          </g>
        </g>
      </g>
    </g>
  </g>
</svg>
