<?xml version="1.0" encoding="utf-8"?>
<!-- Generator: Adobe Illustrator 14.0.0, SVG Export Plug-In . SVG Version: 6.00 Build 43363)  -->
<!DOCTYPE svg PUBLIC "-//W3C//DTD SVG 1.1//EN" "http://www.w3.org/Graphics/SVG/1.1/DTD/svg11.dtd">
<svg version="1.1"
	 id="svg2" xmlns:dc="http://purl.org/dc/elements/1.1/" xmlns:cc="http://creativecommons.org/ns#" xmlns:svg="http://www.w3.org/2000/svg" xmlns:rdf="http://www.w3.org/1999/02/22-rdf-syntax-ns#"
	 xmlns="http://www.w3.org/2000/svg" xmlns:xlink="http://www.w3.org/1999/xlink" x="0px" y="0px" width="48px" height="48px"
	 viewBox="0 0 48 48" enable-background="new 0 0 48 48" xml:space="preserve">
<g id="g3392">
	<g id="XMLID_1_">
		<g>
			<path fill="#FFFFFF" d="M47.66,7.19v33.39c0,3.83-3.101,6.93-6.93,6.93H7.34c-3.83,0-6.93-3.1-6.93-6.93V7.19
				c0-3.83,3.1-6.93,6.93-6.93H40.73C44.559,0.26,47.66,3.36,47.66,7.19z M39.74,22.84c0-0.27-0.101-0.51-0.311-0.72L24.76,7.45
				c-0.21-0.21-0.45-0.31-0.73-0.31c-0.27,0-0.51,0.1-0.72,0.31L8.64,22.12c-0.21,0.21-0.31,0.45-0.31,0.72
				c0,0.28,0.1,0.52,0.31,0.73l1.57,1.57c0.21,0.21,0.46,0.32,0.73,0.32s0.51-0.11,0.72-0.32l12.37-12.37l12.38,12.37
				c0.2,0.21,0.45,0.32,0.72,0.32c0.271,0,0.51-0.11,0.72-0.32l1.58-1.57C39.639,23.36,39.74,23.12,39.74,22.84z M39.74,34.93
				c0-0.27-0.101-0.51-0.311-0.72L24.76,19.54c-0.21-0.21-0.45-0.32-0.73-0.32c-0.27,0-0.51,0.11-0.72,0.32L8.64,34.21
				c-0.21,0.21-0.31,0.45-0.31,0.72c0,0.28,0.1,0.521,0.31,0.73l1.57,1.57c0.21,0.21,0.46,0.31,0.73,0.31s0.51-0.1,0.72-0.31
				l12.37-12.37l12.38,12.37c0.2,0.21,0.45,0.31,0.72,0.31c0.271,0,0.51-0.1,0.72-0.31l1.58-1.57
				C39.639,35.45,39.74,35.21,39.74,34.93z"/>
			<path fill="#BF0D00" d="M24.76,19.54l14.67,14.67c0.21,0.21,0.311,0.45,0.311,0.72c0,0.28-0.101,0.521-0.311,0.73l-1.58,1.57
				c-0.21,0.21-0.449,0.31-0.72,0.31c-0.27,0-0.52-0.1-0.72-0.31L24.03,24.86L11.66,37.23c-0.21,0.21-0.45,0.31-0.72,0.31
				s-0.52-0.1-0.73-0.31l-1.57-1.57c-0.21-0.21-0.31-0.45-0.31-0.73c0-0.27,0.1-0.51,0.31-0.72l14.67-14.67
				c0.21-0.21,0.45-0.32,0.72-0.32C24.31,19.22,24.55,19.33,24.76,19.54z"/>
			<path fill="#BF0D00" d="M11.66,25.14c-0.21,0.21-0.45,0.32-0.72,0.32s-0.52-0.11-0.73-0.32l-1.57-1.57
				c-0.21-0.21-0.31-0.45-0.31-0.73c0-0.27,0.1-0.51,0.31-0.72L23.31,7.45c0.21-0.21,0.45-0.31,0.72-0.31c0.28,0,0.52,0.1,0.73,0.31
				l14.67,14.67c0.21,0.21,0.311,0.45,0.311,0.72c0,0.28-0.101,0.52-0.311,0.73l-1.58,1.57c-0.21,0.21-0.449,0.32-0.72,0.32
				c-0.27,0-0.52-0.11-0.72-0.32L24.03,12.77L11.66,25.14z"/>
		</g>
		<g>
		</g>
	</g>
</g>
</svg>
